<svg xmlns="http://www.w3.org/2000/svg">
	<symbol id="vk-icon" viewBox="0 0 27 27" fill="none"><path d="M24.776.425H2.24c-.911 0-1.65.738-1.65 1.648V24.61c0 .91.739 1.648 1.65 1.648h22.536c.91 0 1.648-.738 1.648-1.648V2.073A1.645 1.645 0 0 0 24.777.425Zm-2.758 15.741c.473.482 1.497 1.29 1.311 2.111-.171.755-1.298.48-2.392.524-1.248.052-1.989.08-2.74-.524-.353-.286-.561-.625-.9-1.004-.308-.343-.697-.957-1.225-.933-.95.047-.653 1.37-.99 2.273-5.28.831-7.4-2.43-9.27-5.595-.906-1.533-2.215-4.825-2.215-4.825l3.734-.013s1.197 2.178 1.515 2.74c.27.478.567.857.873 1.283.257.354.663 1.047 1.108.99.724-.093.855-2.9.407-3.84-.179-.382-.607-.515-1.05-.644.15-.945 4.187-1.142 4.84-.409.948 1.065-.657 4.029.641 4.893 1.823-.955 3.38-4.955 3.38-4.955l4.371.028s-.683 2.162-1.4 3.12c-.417.562-1.802 1.813-1.748 2.74.044.735 1.17 1.45 1.75 2.04Z" fill="currentColor"/></symbol>
	<symbol id="twitter-icon" viewBox="0 0 33 27" fill="none"><path d="M12.275 26.258c-1.369 0-2.778-.11-4.195-.333-2.497-.392-5.024-1.698-5.74-2.088L.465 22.81l2.03-.668c2.22-.73 3.57-1.183 5.242-1.892-1.673-.81-2.963-2.269-3.584-4.154l-.473-1.434.388.06a7.045 7.045 0 0 1-.883-1.088c-.8-1.215-1.223-2.7-1.133-3.971l.09-1.252.749.29A7.006 7.006 0 0 1 2.21 6.8c-.327-1.63-.053-3.361.772-4.875L3.636.725l.873 1.049c2.762 3.317 6.26 5.285 10.41 5.86-.17-1.168-.042-2.296.378-3.307.49-1.177 1.361-2.175 2.518-2.887a7.563 7.563 0 0 1 4.39-1.078c1.64.1 3.127.715 4.31 1.778.577-.15 1.002-.31 1.577-.527.346-.13.738-.278 1.229-.447l1.808-.623L29.95 3.91a5.96 5.96 0 0 1 .242-.016l1.931-.087-1.141 1.56c-.066.09-.082.115-.106.15-.092.139-.206.311-1.773 2.403-.392.524-.588 1.206-.552 1.922.14 2.719-.194 5.178-.992 7.31-.754 2.018-1.922 3.749-3.472 5.145-1.919 1.727-4.365 2.91-7.27 3.515a22.383 22.383 0 0 1-4.542.445Z" fill="currentColor"/></symbol>
	<symbol id="instagram-icon" viewBox="0 0 27 27" fill="none"><path d="M19.586.348H7.703A7.022 7.022 0 0 0 .689 7.362v11.883a7.022 7.022 0 0 0 7.014 7.013h11.883a7.022 7.022 0 0 0 7.014-7.013V7.362A7.022 7.022 0 0 0 19.586.348Zm-5.942 20.04a7.093 7.093 0 0 1-7.084-7.085 7.093 7.093 0 0 1 7.084-7.085 7.093 7.093 0 0 1 7.085 7.085 7.093 7.093 0 0 1-7.085 7.085ZM20.9 7.889a2.096 2.096 0 0 1-2.094-2.093c0-1.155.94-2.094 2.094-2.094s2.093.94 2.093 2.094-.939 2.093-2.093 2.093Z" fill="currentColor"/><path d="M13.645 7.737a5.572 5.572 0 0 0-5.566 5.566 5.572 5.572 0 0 0 5.566 5.566 5.572 5.572 0 0 0 5.565-5.566 5.572 5.572 0 0 0-5.565-5.566ZM20.899 5.221a.575.575 0 1 0 .001 1.15.575.575 0 0 0-.001-1.15Z" fill="currentColor"/></symbol>
	<symbol id="close" viewBox="0 0 12 12" fill="none"><path stroke="currentColor" stroke-linecap="round" d="m3 9 6-6m0 6L3 3" fill="currentColor"/></symbol>
	<symbol id="arrow" viewBox="0 0 17 17" fill="none"><g clip-path="url(#a)"><path d="M16.96 5.09 15 3.15 8.72 9.44l-6.29-6.3L.5 5.1l8.23 8.23 8.24-8.23Z" fill="currentColor"/></g><defs><clipPath id="a"><path fill="currentColor" transform="rotate(90 8.48 8.48)" d="M0 0h16.46v16.46H0z"/></clipPath></defs></symbol>
	<symbol id="mail-icon" fill="none"><path d="M8.5.7312c4.6947 0 8.5 3.8054 8.5 8.5 0 4.6947-3.8053 8.5-8.5 8.5S0 13.9259 0 9.2312c0-4.6946 3.8053-8.5 8.5-8.5Zm0 3.1875-.9557.5605-2.6037 1.5353-.9562.5605v5.3125l.9557.5604 2.628 1.5353.9558.5605.9557-.5605 2.5803-1.5353.9557-.5604V6.575l-.9557-.5605-2.6042-1.5353L8.5 3.9187Zm0 2.2419 2.6042 1.5353v3.0706L8.5 12.3018l-2.6042-1.5353V7.6959L8.5 6.1606Z" fill="currentColor"/></symbol>
	<!-- <svg id="roibee-icon" viewBox="0 0 223 54" fill="none"><path d="M48.7018 13.9915C49.5227 12.5705 49.0355 10.7534 47.6137 9.93293L31.9763 0.90929C30.5545 0.0888442 28.7365 0.575732 27.9156 1.99679C27.0948 3.41784 27.5819 5.23493 29.0037 6.05538L44.6411 15.079C46.0629 15.8995 47.8809 15.4126 48.7018 13.9915Z" fill="url(#paint0_linear_571_237)"/>	<path d="M22.2536 51.7559C23.0745 53.1769 24.8925 53.6638 26.3143 52.8434L41.9517 43.8198C43.3735 42.9993 43.8606 41.1822 43.0398 39.7612C42.2189 38.3401 40.4009 37.8532 38.9791 38.6737L23.3417 47.6973C21.9199 48.5177 21.4327 50.3348 22.2536 51.7559Z" fill="url(#paint1_linear_571_237)"/><path d="M0.733707 13.9915C-0.0871603 12.5705 0.399979 10.7534 1.82176 9.93295L17.4592 0.909315C18.881 0.0888689 20.699 0.575757 21.5199 1.99681C22.3407 3.41786 21.8536 5.23496 20.4318 6.05541L4.79439 15.079C3.3726 15.8995 1.55458 15.4126 0.733707 13.9915Z" fill="url(#paint2_linear_571_237)"/><path d="M46.4629 10.1156C48.1046 10.1156 49.4355 11.4458 49.4355 13.0867V31.134C49.4355 32.7749 48.1046 34.1051 46.4629 34.1051C44.8212 34.1051 43.4903 32.7749 43.4903 31.134V13.0867C43.4903 11.4458 44.8212 10.1156 46.4629 10.1156Z" fill="url(#paint3_linear_571_237)"/><path d="M26.7314 51.7559C25.9106 53.1769 24.0925 53.6638 22.6707 52.8434L7.03331 43.8198C5.61152 42.9993 5.12438 41.1822 5.94525 39.7612C6.76612 38.3401 8.58415 37.8532 10.0059 38.6737L25.6434 47.6973C27.0651 48.5177 27.5523 50.3348 26.7314 51.7559Z" fill="url(#paint4_linear_571_237)"/><path d="M2.97262 10.1156C1.33089 10.1156 0 11.4458 0 13.0867L0 31.134C0 32.7749 1.33089 34.1051 2.97262 34.1051C4.61436 34.1051 5.94525 32.7749 5.94525 31.134L5.94525 13.0867C5.94525 11.4458 4.61436 10.1156 2.97262 10.1156Z" fill="url(#paint5_linear_571_237)"/><path d="M38.8064 33.2547V16.9863L24.7175 25.1205V41.3889L38.8064 33.2547Z" fill="#7A0BFF"/><path d="M10.6289 33.2552L10.6289 16.9868L24.7178 25.121V41.3894L10.6289 33.2552Z" fill="#8D20FF"/><path d="M24.7182 8.85254L38.8071 16.9867L24.7182 25.1209L10.6294 16.9867L24.7182 8.85254Z" fill="#AD44FF"/><path d="M155.759 15.6505H150.483C149.79 15.6505 149.098 15.9472 148.603 16.4418L142.536 22.509V10.3747C142.536 8.92384 141.349 7.7368 139.898 7.7368C138.448 7.7368 137.261 8.92384 137.261 10.3747V28.8729C137.261 29.961 137.92 30.9172 138.876 31.3129C139.206 31.4778 139.569 31.5107 139.898 31.5107C140.591 31.5107 141.283 31.247 141.778 30.7523L151.571 20.9592H155.759C157.21 20.9592 158.397 22.1462 158.397 23.5971C158.397 25.0479 157.21 26.235 155.759 26.235H150.483C149.032 26.235 147.845 27.422 147.845 28.8729C147.845 30.3567 149.032 31.5107 150.483 31.5107H155.759C160.144 31.5107 163.705 27.9826 163.705 23.5971C163.705 19.2116 160.144 15.6505 155.759 15.6505ZM185.833 15.6505H173.962C173.237 15.6505 172.578 15.9472 172.083 16.4418L166.774 21.7176C165.752 22.7727 165.752 24.4214 166.774 25.4766L172.083 30.7523C172.578 31.2799 173.27 31.5107 173.962 31.5107C174.622 31.5107 175.314 31.2799 175.809 30.7523C176.864 29.7302 176.864 28.0485 175.809 27.0263L172.413 23.5971L175.051 20.9592H185.833C186.558 20.9592 187.152 21.5527 187.152 22.2781C187.152 23.0036 186.558 23.5971 185.833 23.5971H181.876C180.425 23.5971 179.238 24.7841 179.238 26.235C179.238 27.6858 180.425 28.8729 181.876 28.8729H185.833C189.493 28.8729 192.461 25.9052 192.461 22.2781C192.461 18.6181 189.493 15.6505 185.833 15.6505ZM214.588 15.6505H202.718C201.992 15.6505 201.333 15.9472 200.838 16.4418L195.529 21.7176C194.507 22.7727 194.507 24.4214 195.529 25.4766L200.838 30.7523C201.333 31.2799 202.025 31.5107 202.718 31.5107C203.377 31.5107 204.07 31.2799 204.564 30.7523C205.619 29.7302 205.619 28.0485 204.564 27.0263L201.168 23.5971L203.806 20.9592H214.588C215.314 20.9592 215.907 21.5527 215.907 22.2781C215.907 23.0036 215.314 23.5971 214.588 23.5971H210.631C209.181 23.5971 207.993 24.7841 207.993 26.235C207.993 27.6858 209.181 28.8729 210.631 28.8729H214.588C218.248 28.8729 221.216 25.9052 221.216 22.2781C221.216 18.6181 218.248 15.6505 214.588 15.6505Z" fill="url(#paint6_linear_571_237)"/><path d="M83.0496 15.6505H72.4651C71.7726 15.6505 71.0802 15.9472 70.5856 16.4418L64.5185 22.509V18.3213C64.5185 16.8375 63.3314 15.6505 61.8806 15.6505C60.4297 15.6505 59.2427 16.8375 59.2427 18.3213V28.8729C59.2427 29.961 59.9022 30.9172 60.8584 31.3129C61.1881 31.4778 61.5508 31.5107 61.8806 31.5107C62.573 31.5107 63.2655 31.247 63.7601 30.7523L73.5532 20.9592H83.0496C84.5004 20.9592 85.6875 19.7722 85.6875 18.3213C85.6875 16.8375 84.5004 15.6505 83.0496 15.6505ZM104.95 15.6505H94.399C90.0135 15.6505 86.4523 19.2116 86.4523 23.5971C86.4523 27.9826 90.0135 31.5107 94.399 31.5107H104.95C109.336 31.5107 112.897 27.9826 112.897 23.5971C112.897 19.2116 109.336 15.6505 104.95 15.6505ZM104.95 26.235H94.399C92.9151 26.235 91.7281 25.0479 91.7281 23.5971C91.7281 22.1462 92.9151 20.9592 94.399 20.9592H104.95C106.401 20.9592 107.588 22.1462 107.588 23.5971C107.588 25.0479 106.401 26.235 104.95 26.235ZM134.04 27.0263L123.455 16.4418C122.961 15.9472 122.301 15.6505 121.609 15.6505H116.3C114.849 15.6505 113.662 16.8375 113.662 18.3213C113.662 19.7722 114.849 20.9592 116.3 20.9592H120.487L130.314 30.7523C130.808 31.2799 131.501 31.5107 132.16 31.5107C132.853 31.5107 133.512 31.2799 134.04 30.7523C135.062 29.7302 135.062 28.0485 134.04 27.0263ZM121.609 13.0126C123.059 13.0126 124.246 11.8255 124.246 10.3747C124.246 8.92384 123.059 7.7368 121.609 7.7368C120.125 7.7368 118.938 8.92384 118.938 10.3747C118.938 11.8255 120.125 13.0126 121.609 13.0126Z" fill="url(#paint7_linear_571_237)"/><defs><linearGradient id="paint0_linear_571_237" x1="58.9644" y1="0.88725" x2="-9.52446" y2="52.3689" gradientUnits="userSpaceOnUse"><stop stop-color="#AD44FF"/><stop offset="1" stop-color="#7100FF"/></linearGradient><linearGradient id="paint1_linear_571_237" x1="58.9644" y1="0.88725" x2="-9.52446" y2="52.3689" gradientUnits="userSpaceOnUse"><stop stop-color="#AD44FF"/><stop offset="1" stop-color="#7100FF"/></linearGradient><linearGradient id="paint2_linear_571_237" x1="58.9644" y1="0.88725" x2="-9.52446" y2="52.3689" gradientUnits="userSpaceOnUse"><stop stop-color="#AD44FF"/><stop offset="1" stop-color="#7100FF"/></linearGradient><linearGradient id="paint3_linear_571_237" x1="58.9644" y1="0.88725" x2="-9.52446" y2="52.3689" gradientUnits="userSpaceOnUse"><stop stop-color="#AD44FF"/><stop offset="1" stop-color="#7100FF"/></linearGradient><linearGradient id="paint4_linear_571_237" x1="58.9644" y1="0.88725" x2="-9.52446" y2="52.3689" gradientUnits="userSpaceOnUse"><stop stop-color="#AD44FF"/><stop offset="1" stop-color="#7100FF"/></linearGradient><linearGradient id="paint5_linear_571_237" x1="58.9644" y1="0.88725" x2="-9.52446" y2="52.3689" gradientUnits="userSpaceOnUse"><stop stop-color="#AD44FF"/><stop offset="1" stop-color="#7100FF"/></linearGradient><linearGradient id="paint6_linear_571_237" x1="138.063" y1="29.779" x2="228.886" y2="19.7588" gradientUnits="userSpaceOnUse"><stop stop-color="#484848"/><stop offset="1" stop-color="#2C2C2C"/></linearGradient><linearGradient id="paint7_linear_571_237" x1="140.831" y1="7.24244" x2="44.626" y2="27.0658" gradientUnits="userSpaceOnUse"><stop stop-color="#AD44FF"/><stop offset="1" stop-color="#7100FF"/></linearGradient></defs></svg> -->
</svg>
