<svg width="440" height="132" viewBox="0 0 440 132" fill="none" xmlns="http://www.w3.org/2000/svg">
<path d="M97.3928 82.9619V42.3201L62.196 62.641V103.283L97.3928 82.9619Z" fill="#7A0BFF"/>
<path d="M27 82.9626V42.3209L62.1968 62.6417V103.284L27 82.9626Z" fill="#8D20FF"/>
<path d="M62.1975 22L97.3943 42.3209L62.1975 62.6418L27.0007 42.3209L62.1975 22Z" fill="#AD44FF"/>
<path d="M121.667 33.6777C123.718 30.1277 122.501 25.5882 118.949 23.5385L79.8833 0.995654C76.3314 -1.05399 71.7896 0.162359 69.7389 3.71244C67.6882 7.26252 68.9052 11.802 72.4571 13.8516L111.523 36.3945C115.075 38.4442 119.616 37.2278 121.667 33.6777Z" fill="url(#paint0_linear_227_165)"/>
<path d="M55.594 128.021C57.6447 131.571 62.1865 132.787 65.7384 130.738L104.804 108.195C108.356 106.145 109.573 101.606 107.522 98.0556C105.471 94.5055 100.93 93.2891 97.3777 95.3388L58.3122 117.882C54.7603 119.931 53.5433 124.471 55.594 128.021Z" fill="url(#paint1_linear_227_165)"/>
<path d="M1.83295 33.6778C-0.217744 30.1277 0.999228 25.5882 4.55114 23.5386L43.6166 0.995716C47.1685 -1.05393 51.7103 0.162421 53.761 3.7125C55.8117 7.26258 54.5948 11.8021 51.0429 13.8517L11.9774 36.3946C8.42546 38.4442 3.88365 37.2279 1.83295 33.6778Z" fill="url(#paint2_linear_227_165)"/>
<path d="M116.074 23.9949C120.175 23.9949 123.5 27.3181 123.5 31.4173L123.5 76.5031C123.5 80.6024 120.175 83.9255 116.074 83.9255C111.972 83.9255 108.648 80.6024 108.648 76.5031L108.648 31.4173C108.648 27.3181 111.972 23.9949 116.074 23.9949Z" fill="url(#paint3_linear_227_165)"/>
<path d="M66.7805 128.021C64.7298 131.571 60.188 132.787 56.6361 130.738L17.5706 108.195C14.0187 106.145 12.8018 101.606 14.8524 98.0556C16.9031 94.5055 21.4449 93.2891 24.9969 95.3388L64.0624 117.882C67.6143 119.931 68.8312 124.471 66.7805 128.021Z" fill="url(#paint4_linear_227_165)"/>
<path d="M7.42622 23.995C3.32483 23.995 0 27.3181 0 31.4174L0 76.5031C0 80.6024 3.32483 83.9255 7.42622 83.9255C11.5276 83.9255 14.8524 80.6024 14.8524 76.5031L14.8524 31.4174C14.8524 27.3181 11.5276 23.995 7.42622 23.995Z" fill="url(#paint5_linear_227_165)"/>
<path d="M148.702 29.1733C150.833 29.1733 152.609 29.862 154.029 31.2394C155.471 32.6169 156.192 34.3387 156.192 36.4048C156.192 38.471 155.471 40.1927 154.029 41.5702C152.609 42.9476 150.833 43.6363 148.702 43.6363H143.408V51.7718H140.599V29.1733H148.702ZM148.541 40.8922C149.918 40.8922 151.048 40.4725 151.931 39.6332C152.835 38.7723 153.287 37.6961 153.287 36.4048C153.287 35.1135 152.835 34.0481 151.931 33.2087C151.048 32.3478 149.918 31.9174 148.541 31.9174H143.408V40.8922H148.541ZM174.642 34.3387H176.837V51.7718H174.545L174.255 49.1245C173.437 50.093 172.436 50.8463 171.252 51.3844C170.09 51.9009 168.809 52.1592 167.41 52.1592C164.849 52.1592 162.708 51.2983 160.986 49.5765C159.264 47.8332 158.403 45.6594 158.403 43.0552C158.403 40.451 159.264 38.288 160.986 36.5662C162.708 34.8229 164.849 33.9512 167.41 33.9512C168.831 33.9512 170.122 34.2203 171.285 34.7583C172.468 35.2964 173.469 36.0497 174.287 37.0182L174.642 34.3387ZM163.02 47.6718C164.247 48.8986 165.786 49.5119 167.636 49.5119C169.487 49.5119 171.015 48.8986 172.221 47.6718C173.426 46.445 174.029 44.9061 174.029 43.0552C174.029 41.2043 173.426 39.6654 172.221 38.4387C171.015 37.2119 169.487 36.5985 167.636 36.5985C165.786 36.5985 164.247 37.2227 163.02 38.471C161.815 39.6977 161.212 41.2258 161.212 43.0552C161.212 44.8846 161.815 46.4235 163.02 47.6718ZM190.92 35.2426C193.395 35.2426 195.429 36.0282 197.022 37.5993C198.614 39.1489 199.411 41.1397 199.411 43.5718C199.411 46.0899 198.582 48.156 196.925 49.7702C195.268 51.3629 193.137 52.1592 190.533 52.1592C187.799 52.1592 185.615 51.2983 183.979 49.5765C182.365 47.8332 181.558 45.5088 181.558 42.6033C181.558 38.1266 182.365 34.7799 183.979 32.5631C185.593 30.3462 188.391 28.7536 192.373 27.7851L197.538 26.5583V29.2701L192.437 30.4969C190.177 31.0134 188.413 31.8636 187.143 33.0473C185.873 34.231 185.055 35.8022 184.689 37.7607C186.217 36.082 188.294 35.2426 190.92 35.2426ZM190.533 49.5119C192.254 49.5119 193.696 48.9524 194.859 47.8332C196.021 46.6925 196.602 45.2828 196.602 43.604C196.602 41.9038 196.021 40.4833 194.859 39.3426C193.696 38.2019 192.254 37.6316 190.533 37.6316C188.789 37.6316 187.337 38.2019 186.174 39.3426C185.012 40.4618 184.431 41.8715 184.431 43.5718C184.431 44.4111 184.582 45.1967 184.883 45.9285C185.206 46.6602 185.636 47.2844 186.174 47.8009C186.712 48.3174 187.358 48.7371 188.111 49.06C188.865 49.3613 189.672 49.5119 190.533 49.5119ZM211.459 52.1592C209.737 52.1592 208.166 51.7718 206.746 50.997C205.325 50.2007 204.217 49.1138 203.42 47.7363C202.624 46.3374 202.226 44.777 202.226 43.0552C202.226 40.4295 203.097 38.2557 204.841 36.5339C206.606 34.8121 208.812 33.9512 211.459 33.9512C213.202 33.9512 214.773 34.3494 216.172 35.1457C217.593 35.9205 218.701 37.0074 219.498 38.4064C220.315 39.7838 220.724 41.3334 220.724 43.0552C220.724 45.6594 219.842 47.8332 218.077 49.5765C216.312 51.2983 214.106 52.1592 211.459 52.1592ZM206.842 47.7041C208.069 48.9093 209.608 49.5119 211.459 49.5119C213.331 49.5119 214.87 48.9093 216.075 47.7041C217.302 46.4773 217.916 44.9277 217.916 43.0552C217.916 41.1828 217.302 39.6439 216.075 38.4387C214.87 37.2119 213.331 36.5985 211.459 36.5985C209.608 36.5985 208.069 37.2119 206.842 38.4387C205.637 39.6439 205.034 41.1828 205.034 43.0552C205.034 44.9277 205.637 46.4773 206.842 47.7041ZM237.757 34.3387V36.8245H231.268V51.7718H228.589V36.8245H222.1V34.3387H237.757ZM255.351 34.3387H257.546V51.7718H255.254L254.964 49.1245C254.146 50.093 253.145 50.8463 251.961 51.3844C250.799 51.9009 249.518 52.1592 248.119 52.1592C245.558 52.1592 243.417 51.2983 241.695 49.5765C239.973 47.8332 239.112 45.6594 239.112 43.0552C239.112 40.451 239.973 38.288 241.695 36.5662C243.417 34.8229 245.558 33.9512 248.119 33.9512C249.54 33.9512 250.831 34.2203 251.993 34.7583C253.177 35.2964 254.178 36.0497 254.996 37.0182L255.351 34.3387ZM243.729 47.6718C244.956 48.8986 246.495 49.5119 248.345 49.5119C250.196 49.5119 251.724 48.8986 252.93 47.6718C254.135 46.445 254.738 44.9061 254.738 43.0552C254.738 41.2043 254.135 39.6654 252.93 38.4387C251.724 37.2119 250.196 36.5985 248.345 36.5985C246.495 36.5985 244.956 37.2227 243.729 38.471C242.524 39.6977 241.921 41.2258 241.921 43.0552C241.921 44.8846 242.524 46.4235 243.729 47.6718ZM276.504 34.3387V36.8245H270.015V51.7718H267.335V36.8245H260.846V34.3387H276.504ZM286.82 39.8269C288.65 39.8269 290.145 40.3864 291.308 41.5056C292.47 42.6033 293.051 44.0453 293.051 45.8316C293.051 47.5749 292.47 49.0062 291.308 50.1253C290.145 51.223 288.65 51.7718 286.82 51.7718H279.815V34.3387H282.494V39.8269H286.82ZM286.465 49.3182C287.606 49.3182 288.52 48.9954 289.209 48.3497C289.898 47.7041 290.242 46.8647 290.242 45.8316C290.242 44.777 289.898 43.9269 289.209 43.2812C288.52 42.614 287.606 42.2804 286.465 42.2804H282.494V49.3182H286.465ZM312.152 52.1592C310.452 52.1592 308.902 51.7718 307.503 50.997C306.126 50.2007 305.039 49.103 304.243 47.7041C303.468 46.3051 303.08 44.7555 303.08 43.0552C303.08 40.451 303.941 38.288 305.663 36.5662C307.406 34.8229 309.569 33.9512 312.152 33.9512C314.218 33.9512 316.005 34.5216 317.511 35.6623C319.039 36.803 320.072 38.3203 320.61 40.2143H317.899C317.382 39.0951 316.607 38.2127 315.574 37.567C314.563 36.9213 313.422 36.5985 312.152 36.5985C310.366 36.5985 308.87 37.2227 307.665 38.471C306.481 39.6977 305.889 41.2258 305.889 43.0552C305.889 44.2605 306.158 45.3581 306.696 46.3481C307.234 47.3167 307.977 48.0915 308.924 48.6726C309.892 49.2321 310.968 49.5119 312.152 49.5119C313.422 49.5119 314.552 49.1891 315.542 48.5434C316.554 47.8762 317.328 46.9615 317.866 45.7993H320.643C320.105 47.7363 319.061 49.286 317.511 50.4482C315.983 51.5888 314.197 52.1592 312.152 52.1592ZM152.286 75.3387H154.965V92.7718H152.286V85.056H142.956V92.7718H140.276V75.3387H142.956V82.4733H152.286V75.3387ZM175.367 75.3387H177.562V92.7718H175.27L174.98 90.1245C174.162 91.093 173.161 91.8463 171.977 92.3844C170.815 92.9009 169.535 93.1592 168.136 93.1592C165.574 93.1592 163.433 92.2983 161.711 90.5765C159.989 88.8332 159.128 86.6594 159.128 84.0552C159.128 81.451 159.989 79.288 161.711 77.5662C163.433 75.8229 165.574 74.9512 168.136 74.9512C169.556 74.9512 170.847 75.2203 172.01 75.7583C173.193 76.2964 174.194 77.0497 175.012 78.0182L175.367 75.3387ZM163.745 88.6718C164.972 89.8986 166.511 90.5119 168.362 90.5119C170.213 90.5119 171.741 89.8986 172.946 88.6718C174.151 87.445 174.754 85.9061 174.754 84.0552C174.754 82.2043 174.151 80.6654 172.946 79.4387C171.741 78.2119 170.213 77.5985 168.362 77.5985C166.511 77.5985 164.972 78.2227 163.745 79.471C162.54 80.6977 161.937 82.2258 161.937 84.0552C161.937 85.8846 162.54 87.4235 163.745 88.6718ZM204.752 92.7718H202.105L199.619 79.8261L193.453 92.4167H192.84L186.706 79.8261L184.22 92.7718H181.573L184.898 75.3387H187.19L193.162 87.5418L199.103 75.3387H201.395L204.752 92.7718ZM221.601 75.3387H223.118V92.7718H220.536V80.3103L210.366 92.7718H208.784V75.3387H211.399V87.7033L221.601 75.3387ZM236.578 85.0883V82.441H246.812V85.0883H236.578Z" fill="url(#paint6_linear_227_165)"/>
<path d="M256.6 67.4615H281.125V98.9615H274.33V73.8065H263.44V98.9615H256.6V67.4615ZM300.89 73.9865C304.55 73.9865 307.58 75.2015 309.98 77.6315C312.41 80.0615 313.625 83.1215 313.625 86.8115C313.625 90.5015 312.41 93.5765 309.98 96.0365C307.55 98.4665 304.52 99.6815 300.89 99.6815C298.4 99.6815 296.165 99.0065 294.185 97.6565V107.737H287.615V74.6615H291.98L293.105 76.8665C295.265 74.9465 297.86 73.9865 300.89 73.9865ZM295.58 91.5815C296.84 92.8415 298.415 93.4715 300.305 93.4715C302.225 93.4715 303.815 92.8415 305.075 91.5815C306.335 90.3215 306.965 88.7315 306.965 86.8115C306.965 85.5515 306.68 84.4115 306.11 83.3915C305.54 82.3715 304.745 81.5765 303.725 81.0065C302.735 80.4365 301.61 80.1515 300.35 80.1515C299.09 80.1515 297.95 80.4365 296.93 81.0065C295.91 81.5765 295.115 82.3715 294.545 83.3915C294.005 84.4115 293.735 85.5515 293.735 86.8115C293.735 88.7315 294.35 90.3215 295.58 91.5815ZM329.854 99.6365C327.364 99.6365 325.114 99.0815 323.104 97.9715C321.094 96.8615 319.519 95.3315 318.379 93.3815C317.269 91.4015 316.714 89.2115 316.714 86.8115C316.714 83.1215 317.959 80.0615 320.449 77.6315C322.939 75.2015 326.074 73.9865 329.854 73.9865C333.604 73.9865 336.724 75.2015 339.214 77.6315C341.704 80.0615 342.949 83.1215 342.949 86.8115C342.949 90.4715 341.689 93.5315 339.169 95.9915C336.679 98.4215 333.574 99.6365 329.854 99.6365ZM329.854 93.4715C331.744 93.4715 333.289 92.8565 334.489 91.6265C335.689 90.3665 336.289 88.7615 336.289 86.8115C336.289 84.8615 335.689 83.2715 334.489 82.0415C333.289 80.7815 331.729 80.1515 329.809 80.1515C327.919 80.1515 326.374 80.7815 325.174 82.0415C323.974 83.2715 323.374 84.8615 323.374 86.8115C323.374 87.7715 323.524 88.6715 323.824 89.5115C324.154 90.3515 324.604 91.0565 325.174 91.6265C325.744 92.1965 326.419 92.6465 327.199 92.9765C328.009 93.3065 328.894 93.4715 329.854 93.4715ZM358.983 99.6365C356.583 99.6365 354.393 99.0815 352.413 97.9715C350.463 96.8315 348.918 95.2715 347.778 93.2915C346.668 91.3115 346.113 89.1215 346.113 86.7215C346.113 83.0915 347.343 80.0615 349.803 77.6315C352.263 75.2015 355.338 73.9865 359.028 73.9865C362.178 73.9865 364.878 74.9015 367.128 76.7315C369.378 78.5315 370.803 80.9315 371.403 83.9315H364.878C364.338 82.7615 363.543 81.8465 362.493 81.1865C361.473 80.4965 360.303 80.1515 358.983 80.1515C357.213 80.1515 355.728 80.7815 354.528 82.0415C353.358 83.3015 352.773 84.8765 352.773 86.7665C352.773 88.6565 353.373 90.2465 354.573 91.5365C355.773 92.8265 357.243 93.4715 358.983 93.4715C360.303 93.4715 361.473 93.1265 362.493 92.4365C363.513 91.7165 364.308 90.6965 364.878 89.3765H371.493C370.893 92.4665 369.453 94.9565 367.173 96.8465C364.893 98.7065 362.163 99.6365 358.983 99.6365ZM395.44 74.6615V80.5565H387.52V98.9615H381.085V80.5565H373.165V74.6615H395.44ZM410.449 99.6365C407.959 99.6365 405.709 99.0815 403.699 97.9715C401.689 96.8615 400.114 95.3315 398.974 93.3815C397.864 91.4015 397.309 89.2115 397.309 86.8115C397.309 83.1215 398.554 80.0615 401.044 77.6315C403.534 75.2015 406.669 73.9865 410.449 73.9865C414.199 73.9865 417.319 75.2015 419.809 77.6315C422.299 80.0615 423.544 83.1215 423.544 86.8115C423.544 90.4715 422.284 93.5315 419.764 95.9915C417.274 98.4215 414.169 99.6365 410.449 99.6365ZM410.449 93.4715C412.339 93.4715 413.884 92.8565 415.084 91.6265C416.284 90.3665 416.884 88.7615 416.884 86.8115C416.884 84.8615 416.284 83.2715 415.084 82.0415C413.884 80.7815 412.324 80.1515 410.404 80.1515C408.514 80.1515 406.969 80.7815 405.769 82.0415C404.569 83.2715 403.969 84.8615 403.969 86.8115C403.969 87.7715 404.119 88.6715 404.419 89.5115C404.749 90.3515 405.199 91.0565 405.769 91.6265C406.339 92.1965 407.014 92.6465 407.794 92.9765C408.604 93.3065 409.489 93.4715 410.449 93.4715ZM428.824 88.7915V66.5615H435.484V88.7915H428.824ZM428.644 98.9615V91.9415H435.619V98.9615H428.644Z" fill="url(#paint7_linear_227_165)"/>
<defs>
<linearGradient id="paint0_linear_227_165" x1="147.305" y1="0.940592" x2="-23.7941" y2="129.552" gradientUnits="userSpaceOnUse">
<stop stop-color="#AD44FF"/>
<stop offset="1" stop-color="#7100FF"/>
</linearGradient>
<linearGradient id="paint1_linear_227_165" x1="147.305" y1="0.940592" x2="-23.7941" y2="129.552" gradientUnits="userSpaceOnUse">
<stop stop-color="#AD44FF"/>
<stop offset="1" stop-color="#7100FF"/>
</linearGradient>
<linearGradient id="paint2_linear_227_165" x1="147.305" y1="0.940592" x2="-23.7941" y2="129.552" gradientUnits="userSpaceOnUse">
<stop stop-color="#AD44FF"/>
<stop offset="1" stop-color="#7100FF"/>
</linearGradient>
<linearGradient id="paint3_linear_227_165" x1="147.305" y1="0.940592" x2="-23.7941" y2="129.552" gradientUnits="userSpaceOnUse">
<stop stop-color="#AD44FF"/>
<stop offset="1" stop-color="#7100FF"/>
</linearGradient>
<linearGradient id="paint4_linear_227_165" x1="147.305" y1="0.940592" x2="-23.7941" y2="129.552" gradientUnits="userSpaceOnUse">
<stop stop-color="#AD44FF"/>
<stop offset="1" stop-color="#7100FF"/>
</linearGradient>
<linearGradient id="paint5_linear_227_165" x1="147.305" y1="0.940592" x2="-23.7941" y2="129.552" gradientUnits="userSpaceOnUse">
<stop stop-color="#AD44FF"/>
<stop offset="1" stop-color="#7100FF"/>
</linearGradient>
<linearGradient id="paint6_linear_227_165" x1="141.612" y1="87.8124" x2="335.96" y2="67.184" gradientUnits="userSpaceOnUse">
<stop stop-color="#484848"/>
<stop offset="1" stop-color="#2C2C2C"/>
</linearGradient>
<linearGradient id="paint7_linear_227_165" x1="451.291" y1="72.3762" x2="243.332" y2="154.561" gradientUnits="userSpaceOnUse">
<stop stop-color="#AD44FF"/>
<stop offset="1" stop-color="#7100FF"/>
</linearGradient>
</defs>
</svg>
