<svg width="96" height="90" viewBox="0 0 96 90" fill="none" xmlns="http://www.w3.org/2000/svg">
<path fill-rule="evenodd" clip-rule="evenodd" d="M82.9909 8.0389C81.721 10.7458 81.0485 10.3534 80.1463 9.8269C79.9388 9.70578 79.719 9.57757 79.4771 9.47837C79.2502 9.38536 79.0183 9.31647 78.7984 9.25117C77.7644 8.94407 76.9968 8.7161 78.2775 6.43019C79.8305 3.65816 81.8512 0.0512941 84.0058 0.805927C86.0586 1.52491 84.6964 4.41717 83.2121 7.56853C83.1385 7.72476 83.0647 7.88162 82.9909 8.0389ZM83 24C83 31.1797 77.1797 37 70 37C62.8203 37 57 31.1797 57 24C57 16.8203 62.8203 11 70 11C77.1797 11 83 16.8203 83 24ZM86.277 20.4718C86.4549 21.5078 86.5875 22.28 89.4557 21.4209L89.6226 21.371L89.9545 21.2721C93.2975 20.2764 96.3657 19.3625 95.5974 17.327C94.791 15.1907 90.7587 16.0869 87.6597 16.7757C85.1041 17.3437 85.4224 18.0774 85.8512 19.0656C85.9424 19.2758 86.0386 19.4975 86.1132 19.7315C86.1928 19.9811 86.2361 20.2334 86.277 20.4718ZM62.7589 75.1307C59.5239 79.9643 50.5575 88.8987 38.9739 89.4747C32.0466 89.8191 25.9098 84.3893 26.2938 77.4883C26.558 72.7416 27.5752 69.8455 28.064 68.4539C28.2185 68.0139 28.3202 67.7243 28.3286 67.5742C30.0156 66.9694 31.4668 66.4597 32.751 66.0087L32.7517 66.0084C38.3787 64.0321 40.798 63.1824 45.7826 60.3984C46.1742 60.1797 46.5906 59.9503 47.0303 59.708C51.8731 57.0398 59.5513 52.8094 68.1935 44.0978C69.5767 59.2157 67.6462 67.2555 62.7589 75.1307ZM0.653319 36.154C3.42902 24.8931 13.9102 17.7963 19.2722 15.543C27.9353 12.2482 36.1958 11.8873 50.772 16.1298C40.5714 22.9509 34.9536 29.6808 31.4104 33.9255L31.4102 33.9257C31.0885 34.3111 30.7839 34.6759 30.4946 35.0185C26.8106 39.3803 25.5149 41.5931 22.5012 46.7395L22.5011 46.7396C21.8132 47.9143 21.0358 49.2418 20.1201 50.7826C19.9712 50.7622 19.6675 50.8068 19.2061 50.8745H19.206C17.7468 51.0888 14.7098 51.5347 9.99996 50.8882C3.15244 49.9484 -1.00662 42.8883 0.653319 36.154ZM42.2693 28.1447C42.2693 27.5326 43.7869 26.3084 46.0633 24.472L46.0635 24.4719C48.34 22.6354 52.893 19.5747 52.893 19.5747C52.893 19.5747 49.8577 29.9812 53.2126 35.4683C56.5674 40.9554 65.0344 41.612 65.0344 41.612C65.0344 41.612 63.5166 43.4483 60.4813 45.897C60.4813 45.897 55.643 50.1411 54.7122 50.0074C53.7813 49.8738 42.2693 28.7569 42.2693 28.1447ZM37.7163 33.0419C36.9574 33.0419 31.6456 39.7755 31.6456 40.3877C31.6456 40.9998 40.2622 57.5743 40.8863 57.682C41.5105 57.7898 44.5458 56.5484 46.0635 55.6914L46.0826 55.6791C47.5939 54.7038 49.0988 53.7325 49.0988 53.2428C49.0988 52.751 38.4751 33.0419 37.7163 33.0419ZM19.4171 63.5182C18.5802 62.1607 20.8153 57.7904 22.942 53.8652C24.9374 50.1821 26.7937 46.8899 27.2162 46.8748C28.089 46.8434 35.4308 59.9821 34.9585 60.4118C34.8251 60.5332 33.5625 60.9137 31.8491 61.4301C30.8704 61.725 29.7446 62.0644 28.598 62.425C26.8265 62.9823 20.3191 64.9814 19.4171 63.5182ZM14.1036 64.0341C14.0148 63.8067 12.0172 65.5453 10.3983 67.3223C8.77932 69.0992 8.0545 71.274 9.58046 72.3589C11.1064 73.4438 13.078 72.0264 14.1924 70.9952C15.3069 69.9639 17.2278 67.9344 17.2278 67.9344C17.2278 67.9344 16.3764 67.7899 15.5583 66.8325C14.8164 65.9642 14.2967 64.5562 14.1402 64.132C14.1241 64.0885 14.1119 64.0553 14.1036 64.0341Z" fill="url(#paint0_linear_4_77)"/>
<defs>
<linearGradient id="paint0_linear_4_77" x1="52.229" y1="0.704346" x2="52.229" y2="89.7692" gradientUnits="userSpaceOnUse">
<stop stop-color="#008EFF"/>
<stop offset="1" stop-color="#AC33FA"/>
</linearGradient>
</defs>
</svg>
