<svg width="367" height="76" viewBox="0 0 367 76" fill="none" xmlns="http://www.w3.org/2000/svg">
<path d="M0.0243754 1.81196V1.16084H-0.626747V1.81196H0.0243754ZM48.9943 1.81196H49.6454V1.16084H48.9943V1.81196ZM48.9943 56V56.6511H49.6454V56H48.9943ZM34.4438 56H33.7927V56.6511H34.4438V56ZM34.4438 15.0579H35.0949V14.4068H34.4438V15.0579ZM14.5749 15.0579V14.4068H13.9237V15.0579H14.5749ZM14.5749 56V56.6511H15.226V56H14.5749ZM0.0243754 56H-0.626747V56.6511H0.0243754V56ZM0.0243754 2.46308H48.9943V1.16084H0.0243754V2.46308ZM48.3432 1.81196V56H49.6454V1.81196H48.3432ZM48.9943 55.3489H34.4438V56.6511H48.9943V55.3489ZM35.0949 56V15.0579H33.7927V56H35.0949ZM34.4438 14.4068H14.5749V15.709H34.4438V14.4068ZM13.9237 15.0579V56H15.226V15.0579H13.9237ZM14.5749 55.3489H0.0243754V56.6511H14.5749V55.3489ZM0.675498 56V1.81196H-0.626747V56H0.675498ZM112.909 8.43494L112.446 8.89249L112.449 8.89535L112.909 8.43494ZM112.909 49.4774L113.369 49.9378L113.372 49.9349L112.909 49.4774ZM77.6868 53.0899L78.0536 52.5519L77.0357 51.8579V53.0899H77.6868ZM77.6868 75.5679V76.219H78.338V75.5679H77.6868ZM63.036 75.5679H62.3849V76.219H63.036V75.5679ZM63.036 1.81196V1.16084H62.3849V1.81196H63.036ZM72.7698 1.81196L73.3498 1.51604L73.1685 1.16084H72.7698V1.81196ZM75.2785 6.72902L74.6985 7.02494L75.0814 7.7754L75.7111 7.21568L75.2785 6.72902ZM80.7976 39.5429L80.3317 39.9978L80.3372 40.0033L80.7976 39.5429ZM101.971 39.5429L102.432 40.0033L101.971 39.5429ZM104.279 21.2795L104.848 20.9619L104.279 21.2795ZM98.9607 15.9611L98.6358 16.5254L98.643 16.5294L98.9607 15.9611ZM83.8081 15.9611L83.4905 15.3927L83.8081 15.9611ZM78.4896 21.2795L77.9212 20.9619L77.9176 20.9683L77.9142 20.9749L78.4896 21.2795ZM92.6387 0.957859C100.64 0.957859 107.226 3.60705 112.446 8.89248L113.372 7.97739C107.889 2.42523 100.961 -0.344387 92.6387 -0.344387V0.957859ZM112.449 8.89535C117.736 14.1824 120.386 20.836 120.386 28.906H121.688C121.688 20.5188 118.92 13.5251 113.369 7.97453L112.449 8.89535ZM120.386 28.906C120.386 36.976 117.736 43.6647 112.446 49.0198L113.372 49.9349C118.92 44.3186 121.688 37.2931 121.688 28.906H120.386ZM112.449 49.017C107.159 54.3062 100.572 56.9545 92.6387 56.9545V58.2567C100.895 58.2567 107.821 55.4861 113.369 49.9378L112.449 49.017ZM92.6387 56.9545C87.2116 56.9545 82.3565 55.4857 78.0536 52.5519L77.32 53.6279C81.8479 56.715 86.9607 58.2567 92.6387 58.2567V56.9545ZM77.0357 53.0899V75.5679H78.338V53.0899H77.0357ZM77.6868 74.9168H63.036V76.219H77.6868V74.9168ZM63.6871 75.5679V1.81196H62.3849V75.5679H63.6871ZM63.036 2.46308H72.7698V1.16084H63.036V2.46308ZM72.1898 2.10788L74.6985 7.02494L75.8585 6.43311L73.3498 1.51604L72.1898 2.10788ZM75.7111 7.21568C80.4024 3.04558 86.033 0.957859 92.6387 0.957859V-0.344387C85.7309 -0.344387 79.788 1.84941 74.8459 6.24237L75.7111 7.21568ZM80.3372 40.0033C83.2771 42.9431 86.9585 44.4086 91.3342 44.4086V43.1064C87.2806 43.1064 83.9377 41.7621 81.258 39.0825L80.3372 40.0033ZM91.3342 44.4086C95.7736 44.4086 99.4896 42.9452 102.432 40.0033L101.511 39.0825C98.8331 41.76 95.4578 43.1064 91.3342 43.1064V44.4086ZM102.432 40.0033C105.373 37.0614 106.837 33.3454 106.837 28.906H105.535C105.535 33.0296 104.188 36.4049 101.511 39.0825L102.432 40.0033ZM106.837 28.906C106.837 25.994 106.177 23.3411 104.848 20.9619L103.711 21.5971C104.923 23.7671 105.535 26.1985 105.535 28.906H106.837ZM104.848 20.9619C103.518 18.5821 101.658 16.7225 99.2783 15.3927L98.643 16.5294C100.812 17.7418 102.498 19.4278 103.711 21.5971L104.848 20.9619ZM99.2856 15.3968C96.9691 14.0631 94.3463 13.4033 91.4345 13.4033V14.7056C94.1423 14.7056 96.5369 15.3169 98.6358 16.5253L99.2856 15.3968ZM91.4345 13.4033C88.5226 13.4033 85.8696 14.0631 83.4905 15.3927L84.1257 16.5294C86.2957 15.3168 88.727 14.7056 91.4345 14.7056V13.4033ZM83.4905 15.3927C81.1107 16.7225 79.2511 18.5821 77.9212 20.9619L79.058 21.5971C80.2703 19.4278 81.9563 17.7418 84.1257 16.5294L83.4905 15.3927ZM77.9142 20.9749C76.6558 23.3517 76.0322 26 76.0322 28.906H77.3345C77.3345 26.1925 77.9151 23.7564 79.0651 21.5842L77.9142 20.9749ZM76.0322 28.906C76.0322 33.3406 77.4589 37.0548 80.3317 39.9977L81.2636 39.0881C78.6507 36.4115 77.3345 33.0344 77.3345 28.906H76.0322ZM142.175 53.7923L141.86 54.3623L142.175 53.7923ZM131.638 43.5568L131.07 43.8753L131.076 43.8854L131.638 43.5568ZM136.254 8.43494L135.799 7.96894L136.254 8.43494ZM178.099 8.43494L178.554 7.96894L178.099 8.43494ZM177.999 49.377L178.454 49.843L178.454 49.8429L177.999 49.377ZM167.563 39.6432L168.029 40.098L168.034 40.0923L167.563 39.6432ZM167.563 18.2691L167.091 18.7182L167.097 18.7238L167.563 18.2691ZM146.791 18.2691L147.257 18.7238L147.262 18.7181L146.791 18.2691ZM143.78 34.9269L143.167 35.1459L143.171 35.1555L143.174 35.165L143.78 34.9269ZM146.791 39.6432L146.33 40.1037L146.791 39.6432ZM151.306 42.6537L151.053 43.2534L151.061 43.2567L151.306 42.6537ZM157.227 56.8541C151.775 56.8541 146.867 55.64 142.489 53.2224L141.86 54.3623C146.447 56.8952 151.574 58.1563 157.227 58.1563V56.8541ZM142.489 53.2224C138.108 50.8028 134.682 47.4736 132.2 43.2282L131.076 43.8854C133.678 48.3369 137.277 51.8313 141.86 54.3623L142.489 53.2224ZM132.206 43.2384C129.789 38.926 128.576 34.153 128.576 28.906H127.274C127.274 34.3628 128.537 39.357 131.07 43.8752L132.206 43.2384ZM128.576 28.906C128.576 20.841 131.29 14.1892 136.709 8.90093L135.799 7.96894C130.113 13.5183 127.274 20.5138 127.274 28.906H128.576ZM136.709 8.90093C142.129 3.61163 148.951 0.957859 157.227 0.957859V-0.344387C148.644 -0.344387 141.485 2.42064 135.799 7.96894L136.709 8.90093ZM157.227 0.957859C165.434 0.957859 172.224 3.61061 177.645 8.90093L178.554 7.96894C172.87 2.42166 165.745 -0.344387 157.227 -0.344387V0.957859ZM177.645 8.90093C183.063 14.1892 185.777 20.841 185.777 28.906H187.079C187.079 20.5138 184.241 13.5183 178.554 7.96894L177.645 8.90093ZM185.777 28.906C185.777 36.8999 183.033 43.5532 177.544 48.9111L178.454 49.8429C184.204 44.2294 187.079 37.2353 187.079 28.906H185.777ZM177.544 48.911C172.122 54.2024 165.365 56.8541 157.227 56.8541V58.1563C165.679 58.1563 172.771 55.3893 178.454 49.843L177.544 48.911ZM157.227 44.4086C161.598 44.4086 165.217 42.9796 168.029 40.0979L167.097 39.1885C164.556 41.7926 161.285 43.1064 157.227 43.1064V44.4086ZM168.034 40.0923C170.84 37.1465 172.228 33.3997 172.228 28.906H170.926C170.926 33.1091 169.638 36.5205 167.091 39.1942L168.034 40.0923ZM172.228 28.906C172.228 24.4125 170.84 20.6955 168.029 17.8144L167.097 18.7238C169.638 21.3283 170.926 24.7026 170.926 28.906H172.228ZM168.034 17.82C165.222 14.8672 161.566 13.4033 157.127 13.4033V14.7056C161.25 14.7056 164.552 16.0515 167.091 18.7181L168.034 17.82ZM157.127 13.4033C152.751 13.4033 149.129 14.8694 146.319 17.82L147.262 18.7181C149.804 16.0493 153.073 14.7056 157.127 14.7056V13.4033ZM146.325 17.8144C143.514 20.6955 142.126 24.4125 142.126 28.906H143.428C143.428 24.7026 144.716 21.3283 147.257 18.7238L146.325 17.8144ZM142.126 28.906C142.126 31.1157 142.471 33.1972 143.167 35.1459L144.393 34.7079C143.751 32.9102 143.428 30.9778 143.428 28.906H142.126ZM143.174 35.165C143.939 37.1115 144.989 38.7621 146.33 40.1037L147.251 39.1828C146.051 37.9822 145.093 36.4886 144.386 34.6888L143.174 35.165ZM146.33 40.1037C147.664 41.437 149.24 42.4865 151.053 43.2533L151.56 42.054C149.894 41.3491 148.46 40.3916 147.251 39.1828L146.33 40.1037ZM151.061 43.2567C152.952 44.0273 155.01 44.4086 157.227 44.4086V43.1064C155.162 43.1064 153.273 42.7518 151.552 42.0507L151.061 43.2567ZM207.534 53.7923L207.205 54.3545L207.215 54.3603L207.534 53.7923ZM197.198 43.3561L196.63 43.6745L196.633 43.681L197.198 43.3561ZM201.713 8.43494L201.256 7.97171L201.713 8.43494ZM240.347 6.42798L239.937 6.93313L239.941 6.93642L240.347 6.42798ZM249.88 22.4837V23.1348H250.675L250.519 22.356L249.88 22.4837ZM235.33 22.4837L234.739 22.7565L234.913 23.1348H235.33V22.4837ZM230.012 16.3625L229.647 16.9018L229.656 16.9079L229.665 16.9137L230.012 16.3625ZM212.25 18.2691L211.778 17.82L211.773 17.826L212.25 18.2691ZM212.35 39.4425L211.873 39.886L212.35 39.4425ZM230.012 41.4495L230.376 41.9889L230.387 41.9815L230.012 41.4495ZM235.33 34.6258V33.9747H234.902L234.732 34.3677L235.33 34.6258ZM250.081 34.6258L250.72 34.7499L250.871 33.9747H250.081V34.6258ZM240.448 51.2836L240.859 51.7882L240.863 51.7849L240.448 51.2836ZM222.184 56.8541C216.937 56.8541 212.164 55.642 207.852 53.2244L207.215 54.3603C211.733 56.8932 216.728 58.1563 222.184 58.1563V56.8541ZM207.862 53.2302C203.613 50.746 200.248 47.3495 197.762 43.0312L196.633 43.681C199.231 48.1934 202.757 51.7544 207.205 54.3545L207.862 53.2302ZM197.766 43.0377C195.348 38.7253 194.136 33.9523 194.136 28.7053H192.834C192.834 34.1621 194.097 39.1563 196.63 43.6745L197.766 43.0377ZM194.136 28.7053C194.136 20.7749 196.816 14.188 202.171 8.89817L201.256 7.97171C195.639 13.5195 192.834 20.4461 192.834 28.7053H194.136ZM202.171 8.89817C207.526 3.60841 214.215 0.957859 222.285 0.957859V-0.344387C213.898 -0.344387 206.872 2.42387 201.256 7.97171L202.171 8.89817ZM222.285 0.957859C229.173 0.957859 235.046 2.95507 239.937 6.93312L240.758 5.92284C235.614 1.73923 229.445 -0.344387 222.285 -0.344387V0.957859ZM239.941 6.93642C244.831 10.8484 247.932 16.0617 249.242 22.6114L250.519 22.356C249.153 15.5259 245.899 10.0354 240.754 5.91954L239.941 6.93642ZM249.88 21.8326H235.33V23.1348H249.88V21.8326ZM235.921 22.2108C234.666 19.492 232.811 17.3528 230.358 15.8112L229.665 16.9137C231.895 18.3156 233.585 20.2573 234.739 22.7565L235.921 22.2108ZM230.376 15.8231C227.986 14.2063 225.248 13.4033 222.184 13.4033V14.7056C225.008 14.7056 227.488 15.4413 229.647 16.9018L230.376 15.8231ZM222.184 13.4033C218.063 13.4033 214.58 14.8787 211.778 17.82L212.721 18.7181C215.272 16.0399 218.412 14.7056 222.184 14.7056V13.4033ZM211.773 17.826C209.04 20.7686 207.685 24.4444 207.685 28.8056H208.987C208.987 24.7376 210.241 21.3891 212.727 18.7121L211.773 17.826ZM207.685 28.8056C207.685 33.1717 209.077 36.8796 211.873 39.886L212.827 38.9991C210.272 36.2522 208.987 32.8688 208.987 28.8056H207.685ZM211.873 39.886C214.671 42.8932 218.121 44.4086 222.184 44.4086V43.1064C218.488 43.1064 215.382 41.7452 212.827 38.9991L211.873 39.886ZM222.184 44.4086C225.248 44.4086 227.986 43.6057 230.376 41.9888L229.647 40.9102C227.488 42.3707 225.008 43.1064 222.184 43.1064V44.4086ZM230.387 41.9815C232.774 40.2969 234.617 37.9205 235.928 34.884L234.732 34.3677C233.501 37.2183 231.799 39.391 229.636 40.9176L230.387 41.9815ZM235.33 35.2769H250.081V33.9747H235.33V35.2769ZM249.442 34.5017C248.131 41.2545 244.993 46.6701 240.032 50.7823L240.863 51.7849C246.071 47.4679 249.356 41.7783 250.72 34.7499L249.442 34.5017ZM240.036 50.7791C235.078 54.8241 229.139 56.8541 222.184 56.8541V58.1563C229.413 58.1563 235.649 56.0386 240.859 51.7882L240.036 50.7791ZM303.483 1.81196H304.134V1.16084H303.483V1.81196ZM303.483 14.9576V15.6087H304.134V14.9576H303.483ZM285.822 14.9576V14.3065H285.17V14.9576H285.822ZM285.822 56V56.6511H286.473V56H285.822ZM271.472 56H270.821V56.6511H271.472V56ZM271.472 14.9576H272.123V14.3065H271.472V14.9576ZM253.811 14.9576H253.159V15.6087H253.811V14.9576ZM253.811 1.81196V1.16084H253.159V1.81196H253.811ZM302.832 1.81196V14.9576H304.134V1.81196H302.832ZM303.483 14.3065H285.822V15.6087H303.483V14.3065ZM285.17 14.9576V56H286.473V14.9576H285.17ZM285.822 55.3489H271.472V56.6511H285.822V55.3489ZM272.123 56V14.9576H270.821V56H272.123ZM271.472 14.3065H253.811V15.6087H271.472V14.3065ZM254.462 14.9576V1.81196H253.159V14.9576H254.462ZM253.811 2.46308H303.483V1.16084H253.811V2.46308ZM321.9 53.7923L321.585 54.3623L321.9 53.7923ZM311.363 43.5568L310.795 43.8753L310.801 43.8854L311.363 43.5568ZM315.979 8.43494L315.525 7.96894L315.979 8.43494ZM357.825 8.43494L358.279 7.96894L357.825 8.43494ZM357.724 49.377L358.179 49.843L358.179 49.8429L357.724 49.377ZM347.288 39.6432L347.754 40.098L347.76 40.0923L347.288 39.6432ZM347.288 18.2691L346.816 18.7182L346.822 18.7238L347.288 18.2691ZM326.516 18.2691L326.982 18.7238L326.987 18.7181L326.516 18.2691ZM323.505 34.9269L322.892 35.1459L322.896 35.1555L322.899 35.165L323.505 34.9269ZM326.516 39.6432L326.056 40.1037L326.516 39.6432ZM331.032 42.6537L330.778 43.2534L330.786 43.2567L331.032 42.6537ZM336.952 56.8541C331.5 56.8541 326.592 55.64 322.215 53.2224L321.585 54.3623C326.172 56.8952 331.299 58.1563 336.952 58.1563V56.8541ZM322.215 53.2224C317.833 50.8028 314.407 47.4736 311.925 43.2282L310.801 43.8854C313.404 48.3369 317.002 51.8313 321.585 54.3623L322.215 53.2224ZM311.931 43.2384C309.514 38.926 308.302 34.153 308.302 28.906H306.999C306.999 34.3628 308.262 39.357 310.795 43.8752L311.931 43.2384ZM308.302 28.906C308.302 20.841 311.015 14.1892 316.434 8.90093L315.525 7.96894C309.838 13.5183 306.999 20.5138 306.999 28.906H308.302ZM316.434 8.90093C321.854 3.61163 328.677 0.957859 336.952 0.957859V-0.344387C328.369 -0.344387 321.21 2.42064 315.525 7.96894L316.434 8.90093ZM336.952 0.957859C345.159 0.957859 351.949 3.61061 357.37 8.90093L358.279 7.96894C352.595 2.42166 345.47 -0.344387 336.952 -0.344387V0.957859ZM357.37 8.90093C362.789 14.1892 365.502 20.841 365.502 28.906H366.805C366.805 20.5138 363.966 13.5183 358.279 7.96894L357.37 8.90093ZM365.502 28.906C365.502 36.8999 362.758 43.5532 357.269 48.9111L358.179 49.8429C363.93 44.2294 366.805 37.2353 366.805 28.906H365.502ZM357.269 48.911C351.847 54.2024 345.091 56.8541 336.952 56.8541V58.1563C345.405 58.1563 352.496 55.3893 358.179 49.843L357.269 48.911ZM336.952 44.4086C341.323 44.4086 344.943 42.9796 347.754 40.0979L346.822 39.1885C344.281 41.7926 341.011 43.1064 336.952 43.1064V44.4086ZM347.76 40.0923C350.565 37.1465 351.953 33.3997 351.953 28.906H350.651C350.651 33.1091 349.363 36.5205 346.816 39.1942L347.76 40.0923ZM351.953 28.906C351.953 24.4125 350.565 20.6955 347.754 17.8144L346.822 18.7238C349.363 21.3283 350.651 24.7026 350.651 28.906H351.953ZM347.76 17.82C344.947 14.8672 341.291 13.4033 336.852 13.4033V14.7056C340.976 14.7056 344.277 16.0515 346.816 18.7181L347.76 17.82ZM336.852 13.4033C332.476 13.4033 328.855 14.8694 326.044 17.82L326.987 18.7181C329.529 16.0493 332.798 14.7056 336.852 14.7056V13.4033ZM326.05 17.8144C323.239 20.6955 321.851 24.4125 321.851 28.906H323.153C323.153 24.7026 324.441 21.3283 326.982 18.7238L326.05 17.8144ZM321.851 28.906C321.851 31.1157 322.196 33.1972 322.892 35.1459L324.119 34.7079C323.477 32.9102 323.153 30.9778 323.153 28.906H321.851ZM322.899 35.165C323.664 37.1115 324.714 38.7621 326.056 40.1037L326.976 39.1828C325.776 37.9822 324.819 36.4886 324.112 34.6888L322.899 35.165ZM326.056 40.1037C327.389 41.437 328.965 42.4865 330.778 43.2533L331.285 42.054C329.619 41.3491 328.185 40.3916 326.976 39.1828L326.056 40.1037ZM330.786 43.2567C332.677 44.0273 334.735 44.4086 336.952 44.4086V43.1064C334.887 43.1064 332.998 42.7518 331.277 42.0507L330.786 43.2567Z" fill="url(#paint0_linear_227_147)"/>
<defs>
<linearGradient id="paint0_linear_227_147" x1="250.977" y1="64.5714" x2="115.05" y2="-12.4866" gradientUnits="userSpaceOnUse">
<stop stop-opacity="0.83"/>
<stop offset="1" stop-opacity="0.15"/>
</linearGradient>
</defs>
</svg>
