<svg width="844" height="89" viewBox="0 0 844 89" fill="none" xmlns="http://www.w3.org/2000/svg">
<path d="M33.5456 20.9148V20.2561H32.8869V20.9148H33.5456ZM47.9608 20.9148H48.6195V20.2561H47.9608V20.9148ZM47.9608 75.7333V76.392H48.6195V75.7333H47.9608ZM33.5456 75.7333H32.8869V76.392H33.5456V75.7333ZM33.5456 57.968H34.2043V57.0604L33.3414 57.3418L33.5456 57.968ZM6.7455 53.2983L6.2759 53.7604L6.28353 53.7679L6.7455 53.2983ZM0.553047 20.9148V20.2561H-0.105651V20.9148H0.553047ZM15.0698 20.9148H15.7285V20.2561H15.0698V20.9148ZM33.5456 44.4665L33.8708 45.0393L34.2043 44.85V44.4665H33.5456ZM33.5456 21.5735H47.9608V20.2561H33.5456V21.5735ZM47.3021 20.9148V75.7333H48.6195V20.9148H47.3021ZM47.9608 75.0746H33.5456V76.392H47.9608V75.0746ZM34.2043 75.7333V57.968H32.8869V75.7333H34.2043ZM33.3414 57.3418C30.299 58.3339 27.0521 58.8321 23.5971 58.8321V60.1495C27.1805 60.1495 30.566 59.6325 33.7498 58.5943L33.3414 57.3418ZM23.5971 58.8321C16.6954 58.8321 11.2567 56.8127 7.20747 52.8288L6.28353 53.7679C10.6263 58.0406 16.422 60.1495 23.5971 60.1495V58.8321ZM7.21504 52.8364C3.23233 48.7884 1.21174 43.3166 1.21174 36.3452H-0.105651C-0.105651 43.586 2.00207 49.4163 6.27596 53.7603L7.21504 52.8364ZM1.21174 36.3452V20.9148H-0.105651V36.3452H1.21174ZM0.553047 21.5735H15.0698V20.2561H0.553047V21.5735ZM14.4111 20.9148V36.5482H15.7285V20.9148H14.4111ZM14.4111 36.5482C14.4111 39.9932 15.2371 42.699 17.0055 44.5419C18.7788 46.3898 21.3905 47.257 24.7138 47.257V45.9396C21.6077 45.9396 19.3975 45.1318 17.956 43.6297C16.5098 42.1226 15.7285 39.8034 15.7285 36.5482H14.4111ZM24.7138 47.257C28.1915 47.257 31.2515 46.526 33.8708 45.0393L33.2205 43.8936C30.8317 45.2494 28.0037 45.9396 24.7138 45.9396V47.257ZM34.2043 44.4665V20.9148H32.8869V44.4665H34.2043ZM107.171 20.9148H107.83V20.2561H107.171V20.9148ZM107.171 34.2134V34.8721H107.83V34.2134H107.171ZM89.3047 34.2134V33.5547H88.646V34.2134H89.3047ZM89.3047 75.7333V76.392H89.9634V75.7333H89.3047ZM74.7879 75.7333H74.1292V76.392H74.7879V75.7333ZM74.7879 34.2134H75.4466V33.5547H74.7879V34.2134ZM56.9212 34.2134H56.2625V34.8721H56.9212V34.2134ZM56.9212 20.9148V20.2561H56.2625V20.9148H56.9212ZM106.513 20.9148V34.2134H107.83V20.9148H106.513ZM107.171 33.5547H89.3047V34.8721H107.171V33.5547ZM88.646 34.2134V75.7333H89.9634V34.2134H88.646ZM89.3047 75.0746H74.7879V76.392H89.3047V75.0746ZM75.4466 75.7333V34.2134H74.1292V75.7333H75.4466ZM74.7879 33.5547H56.9212V34.8721H74.7879V33.5547ZM57.5799 34.2134V20.9148H56.2625V34.2134H57.5799ZM56.9212 21.5735H107.171V20.2561H56.9212V21.5735ZM125.803 73.4999L125.484 74.0765L125.803 73.4999ZM115.144 63.1453L114.569 63.4675L114.575 63.4778L115.144 63.1453ZM119.813 27.6149L119.353 27.1435L119.813 27.6149ZM162.145 27.6149L162.605 27.1435L162.145 27.6149ZM162.044 69.0332L162.504 69.5047L162.504 69.5046L162.044 69.0332ZM151.486 59.1862L151.958 59.6462L151.963 59.6405L151.486 59.1862ZM151.486 37.5634L151.009 38.0177L151.015 38.0234L151.486 37.5634ZM130.472 37.5634L130.944 38.0234L130.949 38.0177L130.472 37.5634ZM127.427 54.415L126.807 54.6365L126.81 54.6462L126.814 54.6559L127.427 54.415ZM130.472 59.1862L130.007 59.652L130.472 59.1862ZM135.041 62.2317L134.784 62.8384L134.792 62.8417L135.041 62.2317ZM141.03 76.5973C135.515 76.5973 130.55 75.369 126.121 72.9233L125.484 74.0765C130.124 76.6389 135.311 77.9147 141.03 77.9147V76.5973ZM126.121 72.9233C121.689 70.4756 118.223 67.1077 115.712 62.8129L114.575 63.4778C117.208 67.981 120.848 71.5161 125.484 74.0765L126.121 72.9233ZM115.718 62.8232C113.272 58.4606 112.046 53.6321 112.046 48.3241H110.729C110.729 53.8443 112.007 58.8967 114.569 63.4674L115.718 62.8232ZM112.046 48.3241C112.046 40.1653 114.791 33.436 120.273 28.0863L119.353 27.1435C113.601 32.7574 110.729 39.8343 110.729 48.3241H112.046ZM120.273 28.0863C125.756 22.7355 132.658 20.0508 141.03 20.0508V18.7334C132.347 18.7334 125.105 21.5306 119.353 27.1435L120.273 28.0863ZM141.03 20.0508C149.332 20.0508 156.201 22.7344 161.685 28.0863L162.605 27.1435C156.855 21.5316 149.647 18.7334 141.03 18.7334V20.0508ZM161.685 28.0863C167.167 33.436 169.912 40.1653 169.912 48.3241H171.23C171.23 39.8343 168.358 32.7574 162.605 27.1435L161.685 28.0863ZM169.912 48.3241C169.912 56.411 167.136 63.1417 161.584 68.5619L162.504 69.5046C168.321 63.8258 171.23 56.7503 171.23 48.3241H169.912ZM161.584 68.5618C156.099 73.9147 149.263 76.5973 141.03 76.5973V77.9147C149.581 77.9147 156.755 75.1154 162.504 69.5047L161.584 68.5618ZM141.03 64.0071C145.452 64.0071 149.114 62.5614 151.958 59.6462L151.015 58.7262C148.445 61.3606 145.136 62.6897 141.03 62.6897V64.0071ZM151.963 59.6405C154.801 56.6604 156.205 52.8701 156.205 48.3241H154.888C154.888 52.5761 153.585 56.0271 151.009 58.732L151.963 59.6405ZM156.205 48.3241C156.205 43.7783 154.801 40.0181 151.958 37.1034L151.015 38.0234C153.585 40.6582 154.888 44.0718 154.888 48.3241H156.205ZM151.963 37.1091C149.118 34.1219 145.419 32.641 140.929 32.641V33.9584C145.1 33.9584 148.44 35.32 151.009 38.0177L151.963 37.1091ZM140.929 32.641C136.502 32.641 132.838 34.1242 129.995 37.1091L130.949 38.0177C133.521 35.3178 136.828 33.9584 140.929 33.9584V32.641ZM130.001 37.1034C127.157 40.0181 125.753 43.7783 125.753 48.3241H127.07C127.07 44.0718 128.373 40.6582 130.944 38.0234L130.001 37.1034ZM125.753 48.3241C125.753 50.5594 126.103 52.6652 126.807 54.6365L128.047 54.1935C127.398 52.3748 127.07 50.42 127.07 48.3241H125.753ZM126.814 54.6559C127.587 56.625 128.649 58.2948 130.007 59.652L130.938 58.7205C129.724 57.5059 128.755 55.9949 128.04 54.1741L126.814 54.6559ZM130.007 59.652C131.356 61.0009 132.95 62.0625 134.784 62.8383L135.297 61.6251C133.612 60.912 132.161 59.9433 130.938 58.7205L130.007 59.652ZM134.792 62.8417C136.706 63.6213 138.788 64.0071 141.03 64.0071V62.6897C138.941 62.6897 137.03 62.331 135.289 61.6217L134.792 62.8417ZM277.12 75.7333V76.392H277.896L277.77 75.6262L277.12 75.7333ZM262.806 75.7333L262.155 75.8334L262.241 76.392H262.806V75.7333ZM257.73 42.7407L258.381 42.6405L258.072 40.6291L257.144 42.4404L257.73 42.7407ZM240.777 75.8348V76.4935H241.18L241.363 76.1351L240.777 75.8348ZM237.935 75.8348L237.348 76.1351L237.532 76.4935H237.935V75.8348ZM220.982 42.7407L221.568 42.4404L220.64 40.6291L220.33 42.6405L220.982 42.7407ZM215.906 75.7333V76.392H216.471L216.557 75.8334L215.906 75.7333ZM201.592 75.7333L200.942 75.625L200.814 76.392H201.592V75.7333ZM210.728 20.9148V20.2561H210.17L210.079 20.8066L210.728 20.9148ZM223.418 20.9148L224.004 20.6142L223.82 20.2561H223.418V20.9148ZM239.356 51.9786L238.77 52.2793L239.352 53.4144L239.94 52.2823L239.356 51.9786ZM255.497 20.9148V20.2561H255.097L254.912 20.6111L255.497 20.9148ZM268.085 20.9148L268.735 20.8077L268.644 20.2561H268.085V20.9148ZM277.12 75.0746H262.806V76.392H277.12V75.0746ZM263.457 75.6331L258.381 42.6405L257.079 42.8409L262.155 75.8334L263.457 75.6331ZM257.144 42.4404L240.191 75.5345L241.363 76.1351L258.316 43.041L257.144 42.4404ZM240.777 75.1761H237.935V76.4935H240.777V75.1761ZM238.521 75.5345L221.568 42.4404L220.395 43.041L237.348 76.1351L238.521 75.5345ZM220.33 42.6405L215.255 75.6331L216.557 75.8334L221.633 42.8409L220.33 42.6405ZM215.906 75.0746H201.592V76.392H215.906V75.0746ZM202.242 75.8416L211.378 21.0231L210.079 20.8066L200.942 75.625L202.242 75.8416ZM210.728 21.5735H223.418V20.2561H210.728V21.5735ZM222.832 21.2155L238.77 52.2793L239.942 51.6779L224.004 20.6142L222.832 21.2155ZM239.94 52.2823L256.081 21.2186L254.912 20.6111L238.771 51.6749L239.94 52.2823ZM255.497 21.5735H268.085V20.2561H255.497V21.5735ZM267.435 21.022L276.47 75.8404L277.77 75.6262L268.735 20.8077L267.435 21.022ZM326.318 41.421L325.865 41.8992L326.318 41.421ZM326.318 70.2514L325.865 69.7732L326.318 70.2514ZM287.438 75.7333H286.779V76.392H287.438V75.7333ZM287.438 20.9148V20.2561H286.779V20.9148H287.438ZM301.954 20.9148H302.613V20.2561H301.954V20.9148ZM301.954 35.9392H301.296V36.5979H301.954V35.9392ZM341.241 20.9148V20.2561H340.582V20.9148H341.241ZM356.062 20.9148H356.721V20.2561H356.062V20.9148ZM356.062 75.7333V76.392H356.721V75.7333H356.062ZM341.241 75.7333H340.582V76.392H341.241V75.7333ZM315.355 61.4196L315.809 61.8966L315.355 61.4196ZM315.355 50.3544L314.889 50.8201L314.894 50.8258L314.9 50.8314L315.355 50.3544ZM301.954 48.2225V47.5638H301.296V48.2225H301.954ZM301.954 63.4499H301.296V64.1086H301.954V63.4499ZM310.989 36.5979C317.218 36.5979 322.153 38.3827 325.865 41.8992L326.771 40.9428C322.768 37.1501 317.484 35.2805 310.989 35.2805V36.5979ZM325.865 41.8992C329.575 45.4137 331.446 50.0374 331.446 55.8362H332.763C332.763 49.7238 330.777 44.7374 326.771 40.9428L325.865 41.8992ZM331.446 55.8362C331.446 61.635 329.575 66.2587 325.865 69.7732L326.771 70.7296C330.777 66.935 332.763 61.9486 332.763 55.8362H331.446ZM325.865 69.7732C322.153 73.2897 317.218 75.0746 310.989 75.0746V76.392C317.484 76.392 322.768 74.5223 326.771 70.7296L325.865 69.7732ZM310.989 75.0746H287.438V76.392H310.989V75.0746ZM288.096 75.7333V20.9148H286.779V75.7333H288.096ZM287.438 21.5735H301.954V20.2561H287.438V21.5735ZM301.296 20.9148V35.9392H302.613V20.9148H301.296ZM301.954 36.5979H310.989V35.2805H301.954V36.5979ZM341.241 21.5735H356.062V20.2561H341.241V21.5735ZM355.404 20.9148V75.7333H356.721V20.9148H355.404ZM356.062 75.0746H341.241V76.392H356.062V75.0746ZM341.9 75.7333V20.9148H340.582V75.7333H341.9ZM309.467 64.1086C312.091 64.1086 314.234 63.3964 315.809 61.8966L314.9 60.9426C313.633 62.1498 311.85 62.7912 309.467 62.7912V64.1086ZM315.809 61.8966C317.383 60.3972 318.145 58.3853 318.145 55.9377H316.828C316.828 58.0922 316.168 59.7349 314.9 60.9426L315.809 61.8966ZM318.145 55.9377C318.145 53.4289 317.387 51.3805 315.809 49.8774L314.9 50.8314C316.164 52.0354 316.828 53.7091 316.828 55.9377H318.145ZM315.82 49.8886C314.247 48.3151 312.1 47.5638 309.467 47.5638V48.8812C311.841 48.8812 313.62 49.5512 314.889 50.8201L315.82 49.8886ZM309.467 47.5638H301.954V48.8812H309.467V47.5638ZM301.296 48.2225V63.4499H302.613V48.2225H301.296ZM301.954 64.1086H309.467V62.7912H301.954V64.1086ZM444.347 61.8256H443.688V62.4843H444.347V61.8256ZM451.047 61.8256H451.706V61.1669H451.047V61.8256ZM451.047 88.3212V88.9799H451.706V88.3212H451.047ZM437.647 88.3212H436.988V88.9799H437.647V88.3212ZM437.647 75.7333H438.305V75.0746H437.647V75.7333ZM403.334 75.7333V75.0746H402.676V75.7333H403.334ZM403.334 88.3212V88.9799H403.993V88.3212H403.334ZM389.833 88.3212H389.174V88.9799H389.833V88.3212ZM389.833 61.8256V61.1669H389.174V61.8256H389.833ZM395.518 61.8256V62.4843H395.75L395.931 62.3384L395.518 61.8256ZM400.086 51.9786L399.441 51.8443L399.439 51.8529L400.086 51.9786ZM403.741 20.9148V20.2561H403.138L403.084 20.856L403.741 20.9148ZM444.347 20.9148H445.005V20.2561H444.347V20.9148ZM416.735 33.9088V33.2501H416.117L416.077 33.8661L416.735 33.9088ZM414.603 52.5877L415.247 52.725L414.603 52.5877ZM410.847 61.8256L410.332 61.4142L409.476 62.4843H410.847V61.8256ZM429.83 61.8256V62.4843H430.489V61.8256H429.83ZM429.83 33.9088H430.489V33.2501H429.83V33.9088ZM444.347 62.4843H451.047V61.1669H444.347V62.4843ZM450.388 61.8256V88.3212H451.706V61.8256H450.388ZM451.047 87.6625H437.647V88.9799H451.047V87.6625ZM438.305 88.3212V75.7333H436.988V88.3212H438.305ZM437.647 75.0746H403.334V76.392H437.647V75.0746ZM402.676 75.7333V88.3212H403.993V75.7333H402.676ZM403.334 87.6625H389.833V88.9799H403.334V87.6625ZM390.492 88.3212V61.8256H389.174V88.3212H390.492ZM389.833 62.4843H395.518V61.1669H389.833V62.4843ZM395.931 62.3384C398.217 60.4952 399.777 57.0163 400.733 52.1043L399.439 51.8529C398.5 56.6864 397.015 59.7722 395.104 61.3129L395.931 62.3384ZM400.731 52.113C401.755 47.196 402.976 36.802 404.397 20.9737L403.084 20.856C401.663 36.7006 400.447 47.0157 399.441 51.8443L400.731 52.113ZM403.741 21.5735H444.347V20.2561H403.741V21.5735ZM443.688 20.9148V61.8256H445.005V20.9148H443.688ZM416.077 33.8661C415.536 42.1829 414.828 48.3704 413.958 52.4504L415.247 52.725C416.137 48.5484 416.85 42.2833 417.392 33.9516L416.077 33.8661ZM413.958 52.4504C413.088 56.5339 411.865 59.4988 410.332 61.4142L411.361 62.2371C413.077 60.0919 414.358 56.8981 415.247 52.725L413.958 52.4504ZM410.847 62.4843H429.83V61.1669H410.847V62.4843ZM430.489 61.8256V33.9088H429.171V61.8256H430.489ZM429.83 33.2501H416.735V34.5675H429.83V33.2501ZM514.312 52.4862V53.1449H514.887L514.964 52.5752L514.312 52.4862ZM472.893 52.4862V51.8275H472.118L472.243 52.5926L472.893 52.4862ZM477.258 61.115L476.823 61.6089L476.83 61.6157L476.838 61.6222L477.258 61.115ZM493.095 62.4347L493.405 63.0159L493.412 63.012L493.42 63.0078L493.095 62.4347ZM497.866 57.765V57.1063H497.489L497.298 57.4319L497.866 57.765ZM513.5 57.765L514.123 57.9776L514.42 57.1063H513.5V57.765ZM503.145 71.9772L503.531 72.5112L503.145 71.9772ZM465.99 68.9317L465.519 69.3917L465.99 68.9317ZM459.189 38.9846L458.561 38.7849L458.557 38.798L459.189 38.9846ZM463.148 30.9649L462.619 30.572L462.612 30.582L463.148 30.9649ZM469.239 24.8739L469.629 25.4047L469.639 25.3972L469.239 24.8739ZM477.055 20.8133L476.852 20.187L477.055 20.8133ZM501.013 23.2497L500.677 23.8161L500.681 23.8184L501.013 23.2497ZM511.063 33.7058L510.479 34.0111L510.483 34.0181L511.063 33.7058ZM477.868 34.721L477.458 34.2051L477.45 34.2112L477.868 34.721ZM473.299 42.3346L472.66 42.1749L472.456 42.9933H473.299V42.3346ZM499.795 42.3346V42.9933H500.683L500.425 42.1436L499.795 42.3346ZM496.851 36.7513L496.343 37.1708L496.348 37.1764L496.352 37.1818L496.851 36.7513ZM492.181 33.1982L491.905 33.7964L491.914 33.8002L492.181 33.1982ZM513.958 48.121C513.958 49.5108 513.858 50.9361 513.659 52.3972L514.964 52.5752C515.171 51.0585 515.275 49.5737 515.275 48.121H513.958ZM514.312 51.8275H472.893V53.1449H514.312V51.8275ZM472.243 52.5926C472.871 56.4294 474.383 59.4566 476.823 61.6089L477.694 60.6211C475.532 58.7128 474.134 55.9875 473.543 52.3798L472.243 52.5926ZM476.838 61.6222C479.346 63.7004 482.516 64.7177 486.293 64.7177V63.4003C482.762 63.4003 479.908 62.4549 477.679 60.6078L476.838 61.6222ZM486.293 64.7177C488.896 64.7177 491.271 64.1541 493.405 63.0159L492.785 61.8535C490.858 62.8811 488.699 63.4003 486.293 63.4003V64.7177ZM493.42 63.0078C495.548 61.8017 497.224 60.1635 498.434 58.0981L497.298 57.4319C496.208 59.2918 494.702 60.7668 492.77 61.8616L493.42 63.0078ZM497.866 58.4237H513.5V57.1063H497.866V58.4237ZM512.876 57.5525C510.888 63.3853 507.516 68.0078 502.759 71.4432L503.531 72.5112C508.519 68.9082 512.051 64.0559 514.123 57.9776L512.876 57.5525ZM502.759 71.4432C498.006 74.8765 492.525 76.5973 486.293 76.5973V77.9147C492.785 77.9147 498.539 76.1164 503.531 72.5112L502.759 71.4432ZM486.293 76.5973C478.34 76.5973 471.746 73.8876 466.462 68.4717L465.519 69.3917C471.063 75.0749 478.004 77.9147 486.293 77.9147V76.5973ZM466.462 68.4717C461.175 63.0527 458.528 56.3518 458.528 48.3241H457.21C457.21 56.6742 459.977 63.7117 465.519 69.3917L466.462 68.4717ZM458.528 48.3241C458.528 45.1358 458.959 42.0857 459.82 39.1713L458.557 38.798C457.658 41.8391 457.21 45.0153 457.21 48.3241H458.528ZM459.816 39.1843C460.745 36.2672 462.035 33.6566 463.684 31.3477L462.612 30.582C460.877 33.0106 459.528 35.7465 458.561 38.7849L459.816 39.1843ZM463.677 31.3577C465.398 29.0398 467.382 27.0565 469.629 25.4046L468.849 24.3433C466.493 26.0753 464.416 28.1526 462.619 30.5721L463.677 31.3577ZM469.639 25.3972C471.878 23.6853 474.416 22.3654 477.259 21.4397L476.852 20.187C473.875 21.1562 471.202 22.5434 468.839 24.3507L469.639 25.3972ZM477.259 21.4397C480.1 20.5149 483.11 20.0508 486.293 20.0508V18.7334C482.98 18.7334 479.831 19.2168 476.852 20.187L477.259 21.4397ZM486.293 20.0508C491.668 20.0508 496.456 21.3101 500.677 23.8161L501.349 22.6833C496.907 20.0459 491.883 18.7334 486.293 18.7334V20.0508ZM500.681 23.8184C504.976 26.3294 508.237 29.7248 510.479 34.0111L511.647 33.4005C509.287 28.8888 505.848 25.3135 501.346 22.681L500.681 23.8184ZM510.483 34.0181C512.798 38.3169 513.958 43.014 513.958 48.121H515.275C515.275 42.8057 514.066 37.8927 511.643 33.3935L510.483 34.0181ZM486.293 31.3213C482.849 31.3213 479.89 32.2735 477.458 34.2051L478.277 35.2368C480.447 33.5138 483.106 32.6387 486.293 32.6387V31.3213ZM477.45 34.2112C475.09 36.1421 473.501 38.8118 472.66 42.1749L473.938 42.4944C474.722 39.3605 476.178 36.9544 478.285 35.2308L477.45 34.2112ZM473.299 42.9933H499.795V41.6759H473.299V42.9933ZM500.425 42.1436C499.727 39.8383 498.706 37.8911 497.35 36.3207L496.352 37.1818C497.568 38.5892 498.51 40.3643 499.165 42.5257L500.425 42.1436ZM497.359 36.3318C496.009 34.6974 494.37 33.4502 492.449 32.5963L491.914 33.8002C493.647 34.5705 495.122 35.692 496.343 37.1708L497.359 36.3318ZM492.457 32.6002C490.602 31.7436 488.543 31.3213 486.293 31.3213V32.6387C488.375 32.6387 490.242 33.0286 491.905 33.7963L492.457 32.6002ZM534.122 20.9148V20.2561H533.533L533.467 20.8414L534.122 20.9148ZM573.307 20.9148H573.965V20.2561H573.307V20.9148ZM573.307 75.7333V76.392H573.965V75.7333H573.307ZM558.79 75.7333H558.131V76.392H558.79V75.7333ZM558.79 33.8073H559.448V33.1486H558.79V33.8073ZM546.202 33.8073V33.1486H545.602L545.546 33.7458L546.202 33.8073ZM544.375 53.2983L545.03 53.3628L545.03 53.3598L544.375 53.2983ZM537.776 70.8605L538.233 71.3352L537.776 70.8605ZM519.199 76.0378H518.54V76.6965H519.199V76.0378ZM519.199 62.6378V61.9791H518.54V62.6378H519.199ZM527.929 60.5059L528.406 60.9602L527.929 60.5059ZM530.365 54.415L529.711 54.3416L529.71 54.3478L530.365 54.415ZM534.122 21.5735H573.307V20.2561H534.122V21.5735ZM572.648 20.9148V75.7333H573.965V20.9148H572.648ZM573.307 75.0746H558.79V76.392H573.307V75.0746ZM559.448 75.7333V33.8073H558.131V75.7333H559.448ZM558.79 33.1486H546.202V34.466H558.79V33.1486ZM545.546 33.7458L543.719 53.2368L545.03 53.3598L546.858 33.8688L545.546 33.7458ZM543.719 53.2338C542.913 61.4306 540.739 67.0952 537.319 70.3859L538.233 71.3352C541.987 67.7228 544.212 61.6792 545.03 53.3628L543.719 53.2338ZM537.319 70.3859C533.9 73.6759 528.714 75.3791 521.635 75.3791V76.6965C528.904 76.6965 534.478 74.9482 538.233 71.3352L537.319 70.3859ZM521.635 75.3791H519.199V76.6965H521.635V75.3791ZM519.857 76.0378V62.6378H518.54V76.0378H519.857ZM519.199 63.2965H522.853V61.9791H519.199V63.2965ZM522.853 63.2965C525.057 63.2965 526.923 62.517 528.406 60.9602L527.452 60.0517C526.228 61.3374 524.71 61.9791 522.853 61.9791V63.2965ZM528.406 60.9602C529.891 59.4015 530.74 57.2161 531.021 54.4822L529.71 54.3478C529.449 56.8927 528.675 58.7679 527.452 60.0517L528.406 60.9602ZM531.02 54.4884L534.776 20.9882L533.467 20.8414L529.711 54.3416L531.02 54.4884ZM632.292 20.8133V20.1546H631.805L631.662 20.6196L632.292 20.8133ZM643.357 20.8133H644.016V20.1546H643.357V20.8133ZM643.357 75.6318V76.2905H644.016V75.6318H643.357ZM631.683 75.6318L631.044 75.7915L631.168 76.2905H631.683V75.6318ZM630.465 70.759L631.104 70.5993L630.844 69.5601L630.034 70.2608L630.465 70.759ZM592.092 69.0332L591.62 69.4933L591.626 69.499L592.092 69.0332ZM592.092 27.6149L591.626 27.1491L591.623 27.152L592.092 27.6149ZM630.668 26.0921L630.229 26.5837L630.995 27.267L631.297 26.2859L630.668 26.0921ZM603.157 58.9832L602.685 59.4434L602.691 59.449L603.157 58.9832ZM624.577 58.9832L625.042 59.449L624.577 58.9832ZM606.202 35.2285L606.531 35.7994L606.536 35.7963L606.202 35.2285ZM600.924 40.6089L601.494 40.9376L601.499 40.9302L600.924 40.6089ZM632.292 21.472H643.357V20.1546H632.292V21.472ZM642.698 20.8133V75.6318H644.016V20.8133H642.698ZM643.357 74.9731H631.683V76.2905H643.357V74.9731ZM632.322 75.472L631.104 70.5993L629.826 70.9188L631.044 75.7915L632.322 75.472ZM630.034 70.2608C625.149 74.485 619.382 76.5973 612.699 76.5973V77.9147C619.687 77.9147 625.763 75.6957 630.895 71.2572L630.034 70.2608ZM612.699 76.5973C604.605 76.5973 597.907 73.9172 592.557 68.5675L591.626 69.499C597.24 75.113 604.281 77.9147 612.699 77.9147V76.5973ZM592.563 68.5733C587.278 63.1564 584.629 56.3889 584.629 48.2225H583.312C583.312 56.7048 586.077 63.811 591.62 69.4932L592.563 68.5733ZM584.629 48.2225C584.629 40.1255 587.277 33.4269 592.56 28.0777L591.623 27.152C586.078 32.7666 583.312 39.8064 583.312 48.2225H584.629ZM592.557 28.0806C597.907 22.731 604.605 20.0508 612.699 20.0508V18.7334C604.281 18.7334 597.24 21.5351 591.626 27.1491L592.557 28.0806ZM612.699 20.0508C619.515 20.0508 625.347 22.2292 630.229 26.5837L631.106 25.6006C625.972 21.0217 619.825 18.7334 612.699 18.7334V20.0508ZM631.297 26.2859L632.921 21.007L631.662 20.6196L630.038 25.8984L631.297 26.2859ZM602.691 59.449C605.665 62.423 609.389 63.9056 613.816 63.9056V62.5882C609.715 62.5882 606.333 61.2283 603.623 58.5174L602.691 59.449ZM613.816 63.9056C618.307 63.9056 622.066 62.4251 625.042 59.449L624.111 58.5174C621.402 61.2261 617.988 62.5882 613.816 62.5882V63.9056ZM625.042 59.449C628.019 56.4728 629.499 52.7136 629.499 48.2225H628.182C628.182 52.3941 626.82 55.8087 624.111 58.5174L625.042 59.449ZM629.499 48.2225C629.499 43.7315 628.019 39.9723 625.042 36.9961L624.111 37.9277C626.82 40.6364 628.182 44.0509 628.182 48.2225H629.499ZM625.042 36.9961C622.068 34.0221 618.344 32.5395 613.918 32.5395V33.8569C618.018 33.8569 621.4 35.2168 624.111 37.9277L625.042 36.9961ZM613.918 32.5395C610.966 32.5395 608.277 33.2438 605.868 34.6608L606.536 35.7963C608.729 34.5062 611.185 33.8569 613.918 33.8569V32.5395ZM605.874 34.6577C603.535 36.0044 601.691 37.8851 600.349 40.2875L601.499 40.9302C602.728 38.7306 604.403 37.0245 606.531 35.7994L605.874 34.6577ZM600.353 40.2802C599.003 42.6236 598.336 45.2769 598.336 48.2225H599.653C599.653 45.4833 600.272 43.0608 601.494 40.9375L600.353 40.2802ZM598.336 48.2225C598.336 52.7088 599.779 56.4662 602.685 59.4433L603.628 58.5231C600.985 55.8154 599.653 52.399 599.653 48.2225H598.336ZM710.503 52.4862V53.1449H711.077L711.155 52.5752L710.503 52.4862ZM669.084 52.4862V51.8275H668.309L668.434 52.5926L669.084 52.4862ZM673.449 61.115L673.013 61.6089L673.021 61.6157L673.029 61.6222L673.449 61.115ZM689.286 62.4347L689.596 63.0159L689.603 63.012L689.61 63.0078L689.286 62.4347ZM694.057 57.765V57.1063H693.68L693.489 57.4319L694.057 57.765ZM709.69 57.765L710.314 57.9776L710.611 57.1063H709.69V57.765ZM699.336 71.9772L699.721 72.5112L699.336 71.9772ZM662.181 68.9317L661.71 69.3917L662.181 68.9317ZM655.38 38.9846L654.752 38.7849L654.748 38.798L655.38 38.9846ZM659.339 30.9649L658.81 30.572L658.803 30.582L659.339 30.9649ZM665.43 24.8739L665.82 25.4047L665.83 25.3972L665.43 24.8739ZM673.246 20.8133L673.042 20.187L673.246 20.8133ZM697.204 23.2497L696.868 23.8161L696.872 23.8184L697.204 23.2497ZM707.254 33.7058L706.67 34.0111L706.674 34.0181L707.254 33.7058ZM674.058 34.721L673.649 34.2051L673.641 34.2112L674.058 34.721ZM669.49 42.3346L668.851 42.1749L668.647 42.9933H669.49V42.3346ZM695.986 42.3346V42.9933H696.874L696.616 42.1436L695.986 42.3346ZM693.042 36.7513L692.534 37.1708L692.539 37.1764L692.543 37.1818L693.042 36.7513ZM688.372 33.1982L688.096 33.7964L688.105 33.8002L688.372 33.1982ZM710.148 48.121C710.148 49.5108 710.049 50.9361 709.85 52.3972L711.155 52.5752C711.362 51.0585 711.466 49.5737 711.466 48.121H710.148ZM710.503 51.8275H669.084V53.1449H710.503V51.8275ZM668.434 52.5926C669.062 56.4294 670.574 59.4566 673.013 61.6089L673.885 60.6211C671.722 58.7128 670.325 55.9875 669.734 52.3798L668.434 52.5926ZM673.029 61.6222C675.537 63.7004 678.706 64.7177 682.484 64.7177V63.4003C678.953 63.4003 676.099 62.4549 673.87 60.6078L673.029 61.6222ZM682.484 64.7177C685.087 64.7177 687.462 64.1541 689.596 63.0159L688.976 61.8535C687.049 62.8811 684.89 63.4003 682.484 63.4003V64.7177ZM689.61 63.0078C691.739 61.8017 693.415 60.1635 694.625 58.0981L693.489 57.4319C692.398 59.2918 690.893 60.7668 688.961 61.8616L689.61 63.0078ZM694.057 58.4237H709.69V57.1063H694.057V58.4237ZM709.067 57.5525C707.078 63.3853 703.707 68.0078 698.95 71.4432L699.721 72.5112C704.71 68.9082 708.242 64.0559 710.314 57.9776L709.067 57.5525ZM698.95 71.4432C694.196 74.8765 688.716 76.5973 682.484 76.5973V77.9147C688.976 77.9147 694.73 76.1164 699.721 72.5112L698.95 71.4432ZM682.484 76.5973C674.531 76.5973 667.936 73.8876 662.653 68.4717L661.71 69.3917C667.254 75.0749 674.195 77.9147 682.484 77.9147V76.5973ZM662.653 68.4717C657.366 63.0527 654.719 56.3518 654.719 48.3241H653.401C653.401 56.6742 656.168 63.7117 661.71 69.3917L662.653 68.4717ZM654.719 48.3241C654.719 45.1358 655.15 42.0857 656.011 39.1713L654.748 38.798C653.849 41.8391 653.401 45.0153 653.401 48.3241H654.719ZM656.007 39.1843C656.935 36.2672 658.225 33.6566 659.875 31.3477L658.803 30.582C657.068 33.0106 655.719 35.7465 654.752 38.7849L656.007 39.1843ZM659.867 31.3577C661.589 29.0398 663.573 27.0565 665.82 25.4046L665.039 24.3433C662.684 26.0753 660.607 28.1526 658.81 30.5721L659.867 31.3577ZM665.83 25.3972C668.068 23.6853 670.607 22.3654 673.45 21.4397L673.042 20.187C670.065 21.1562 667.393 22.5434 665.029 24.3507L665.83 25.3972ZM673.45 21.4397C676.291 20.5149 679.301 20.0508 682.484 20.0508V18.7334C679.171 18.7334 676.022 19.2168 673.042 20.187L673.45 21.4397ZM682.484 20.0508C687.858 20.0508 692.647 21.3101 696.868 23.8161L697.54 22.6833C693.098 20.0459 688.074 18.7334 682.484 18.7334V20.0508ZM696.872 23.8184C701.167 26.3294 704.428 29.7248 706.67 34.0111L707.838 33.4005C705.478 28.8888 702.039 25.3135 697.536 22.681L696.872 23.8184ZM706.674 34.0181C708.989 38.3169 710.148 43.014 710.148 48.121H711.466C711.466 42.8057 710.257 37.8927 707.834 33.3935L706.674 34.0181ZM682.484 31.3213C679.039 31.3213 676.081 32.2735 673.649 34.2051L674.468 35.2368C676.638 33.5138 679.297 32.6387 682.484 32.6387V31.3213ZM673.641 34.2112C671.281 36.1421 669.692 38.8118 668.851 42.1749L670.129 42.4944C670.913 39.3605 672.369 36.9544 674.476 35.2308L673.641 34.2112ZM669.49 42.9933H695.986V41.6759H669.49V42.9933ZM696.616 42.1436C695.918 39.8383 694.897 37.8911 693.54 36.3207L692.543 37.1818C693.759 38.5892 694.7 40.3643 695.355 42.5257L696.616 42.1436ZM693.55 36.3318C692.2 34.6974 690.561 33.4502 688.64 32.5963L688.105 33.8002C689.838 34.5705 691.312 35.692 692.534 37.1708L693.55 36.3318ZM688.648 32.6002C686.792 31.7436 684.734 31.3213 682.484 31.3213V32.6387C684.566 32.6387 686.433 33.0286 688.096 33.7963L688.648 32.6002ZM792.43 75.7333V76.392H793.206L793.08 75.6262L792.43 75.7333ZM778.117 75.7333L777.466 75.8334L777.552 76.392H778.117V75.7333ZM773.041 42.7407L773.692 42.6405L773.382 40.6291L772.455 42.4404L773.041 42.7407ZM756.088 75.8348V76.4935H756.49L756.674 76.1351L756.088 75.8348ZM753.245 75.8348L752.659 76.1351L752.843 76.4935H753.245V75.8348ZM736.292 42.7407L736.878 42.4404L735.951 40.6291L735.641 42.6405L736.292 42.7407ZM731.216 75.7333V76.392H731.782L731.867 75.8334L731.216 75.7333ZM716.903 75.7333L716.253 75.625L716.125 76.392H716.903V75.7333ZM726.039 20.9148V20.2561H725.481L725.389 20.8066L726.039 20.9148ZM738.729 20.9148L739.315 20.6142L739.131 20.2561H738.729V20.9148ZM754.667 51.9786L754.08 52.2793L754.663 53.4144L755.251 52.2823L754.667 51.9786ZM770.807 20.9148V20.2561H770.407L770.223 20.6111L770.807 20.9148ZM783.395 20.9148L784.045 20.8077L783.954 20.2561H783.395V20.9148ZM792.43 75.0746H778.117V76.392H792.43V75.0746ZM778.768 75.6331L773.692 42.6405L772.39 42.8409L777.466 75.8334L778.768 75.6331ZM772.455 42.4404L755.502 75.5345L756.674 76.1351L773.627 43.041L772.455 42.4404ZM756.088 75.1761H753.245V76.4935H756.088V75.1761ZM753.832 75.5345L736.878 42.4404L735.706 43.041L752.659 76.1351L753.832 75.5345ZM735.641 42.6405L730.565 75.6331L731.867 75.8334L736.943 42.8409L735.641 42.6405ZM731.216 75.0746H716.903V76.392H731.216V75.0746ZM717.552 75.8416L726.689 21.0231L725.389 20.8066L716.253 75.625L717.552 75.8416ZM726.039 21.5735H738.729V20.2561H726.039V21.5735ZM738.143 21.2155L754.08 52.2793L755.253 51.6779L739.315 20.6142L738.143 21.2155ZM755.251 52.2823L771.392 21.2186L770.223 20.6111L754.082 51.6749L755.251 52.2823ZM770.807 21.5735H783.395V20.2561H770.807V21.5735ZM782.746 21.022L791.78 75.8404L793.08 75.6262L784.045 20.8077L782.746 21.022ZM811.737 53.6029H811.078V54.2616H811.737V53.6029ZM812.549 44.6695L811.92 44.4743L811.917 44.4842L811.914 44.4943L812.549 44.6695ZM815.188 39.5937L814.678 39.1766L814.676 39.1793L815.188 39.5937ZM818.335 36.2437L818.761 36.7465L818.764 36.7438L818.335 36.2437ZM822.193 33.2997L822.573 33.8373L822.193 33.2997ZM825.847 30.5588L826.269 31.0648L826.281 31.0549L826.292 31.0444L825.847 30.5588ZM828.182 27.5134L828.752 27.8434L828.756 27.8371L828.759 27.8308L828.182 27.5134ZM826.558 16.5497L826.11 17.0331L826.12 17.042L826.558 16.5497ZM813.158 16.5497L813.578 17.0572L813.588 17.0486L813.158 16.5497ZM810.112 23.3512V24.0099H810.756L810.771 23.3665L810.112 23.3512ZM796.205 23.3512L795.546 23.3419L795.537 24.0099H796.205V23.3512ZM799.859 10.8648L800.406 11.2326L800.409 11.2278L799.859 10.8648ZM836.709 6.70266L836.274 7.19658L836.277 7.19971L836.709 6.70266ZM842.902 29.2391L842.27 29.052L842.267 29.0629L842.264 29.0738L842.902 29.2391ZM840.466 34.1119L839.954 33.6974L840.466 34.1119ZM837.522 37.3604L837.967 37.8459L837.522 37.3604ZM833.969 40.4058L834.367 40.9303L834.378 40.9222L834.388 40.9137L833.969 40.4058ZM830.212 43.4513L829.767 42.9657L830.212 43.4513ZM827.776 46.6998L827.204 46.373L827.198 46.3835L827.193 46.3942L827.776 46.6998ZM826.659 53.6029V54.2616H827.318V53.6029H826.659ZM811.331 75.7333H810.672V76.392H811.331V75.7333ZM811.331 59.8968V59.2381H810.672V59.8968H811.331ZM827.065 59.8968H827.724V59.2381H827.065V59.8968ZM827.065 75.7333V76.392H827.724V75.7333H827.065ZM812.395 53.6029V51.3695H811.078V53.6029H812.395ZM812.395 51.3695C812.395 48.9117 812.661 46.7389 813.184 44.8447L811.914 44.4943C811.353 46.5253 811.078 48.8193 811.078 51.3695H812.395ZM813.178 44.8647C813.765 42.9721 814.608 41.3568 815.7 40.0082L814.676 39.1793C813.467 40.673 812.55 42.4416 811.92 44.4743L813.178 44.8647ZM815.698 40.0108C816.905 38.5354 817.925 37.4536 818.761 36.7465L817.91 35.7409C816.986 36.5227 815.907 37.6743 814.678 39.1766L815.698 40.0108ZM818.764 36.7438C819.69 35.9503 820.957 34.9821 822.573 33.8373L821.812 32.7622C820.18 33.9185 818.876 34.9129 817.906 35.7436L818.764 36.7438ZM822.573 33.8373C824.202 32.6838 825.437 31.7584 826.269 31.0648L825.426 30.0528C824.634 30.7128 823.432 31.6146 821.812 32.7622L822.573 33.8373ZM826.292 31.0444C827.168 30.2421 827.985 29.1684 828.752 27.8434L827.612 27.1833C826.89 28.4301 826.151 29.3867 825.402 30.0733L826.292 31.0444ZM828.759 27.8308C829.56 26.3749 829.957 24.776 829.957 23.0467H828.64C828.64 24.5658 828.293 25.9447 827.605 27.1959L828.759 27.8308ZM829.957 23.0467C829.957 20.174 828.979 17.8209 826.995 16.0574L826.12 17.042C827.791 18.527 828.64 20.5052 828.64 23.0467H829.957ZM827.005 16.0663C825.052 14.2577 822.691 13.3531 819.959 13.3531V14.6705C822.371 14.6705 824.409 15.4578 826.11 17.033L827.005 16.0663ZM819.959 13.3531C817.228 13.3531 814.809 14.2566 812.728 16.0508L813.588 17.0486C815.432 15.4589 817.547 14.6705 819.959 14.6705V13.3531ZM812.738 16.0422C810.606 17.8063 809.525 20.2652 809.454 23.3359L810.771 23.3665C810.835 20.617 811.784 18.5416 813.578 17.0571L812.738 16.0422ZM810.112 22.6925H796.205V24.0099H810.112V22.6925ZM796.863 23.3605C796.929 18.6658 798.118 14.6321 800.406 11.2326L799.313 10.497C796.864 14.1359 795.615 18.4265 795.546 23.3419L796.863 23.3605ZM800.409 11.2278C802.718 7.73169 805.571 5.21355 808.967 3.64616L808.415 2.45002C804.773 4.13113 801.738 6.82413 799.31 10.5018L800.409 11.2278ZM808.967 3.64616C812.396 2.06376 816.091 1.27042 820.061 1.27042V-0.046978C815.91 -0.046978 812.025 0.783928 808.415 2.45002L808.967 3.64616ZM820.061 1.27042C826.408 1.27042 831.799 3.24872 836.274 7.19657L837.145 6.20874C832.415 2.03534 826.708 -0.046978 820.061 -0.046978V1.27042ZM836.277 7.19971C840.787 11.1213 843.055 16.3796 843.055 23.0467H844.373C844.373 16.043 841.971 10.4053 837.142 6.2056L836.277 7.19971ZM843.055 23.0467C843.055 25.297 842.79 27.2965 842.27 29.052L843.533 29.4262C844.096 27.5272 844.373 25.3984 844.373 23.0467H843.055ZM842.264 29.0738C841.813 30.813 841.043 32.3517 839.954 33.6974L840.977 34.5263C842.189 33.0296 843.043 31.3198 843.539 29.4044L842.264 29.0738ZM839.954 33.6974C838.812 35.1075 837.854 36.162 837.076 36.8748L837.967 37.8459C838.813 37.0699 839.818 35.9587 840.977 34.5263L839.954 33.6974ZM837.076 36.8748C836.277 37.6078 835.103 38.6145 833.549 39.898L834.388 40.9137C835.947 39.6255 837.142 38.6019 837.967 37.8459L837.076 36.8748ZM833.57 39.8814C831.874 41.1705 830.602 42.2003 829.767 42.9657L830.658 43.9369C831.447 43.2134 832.679 42.2129 834.367 40.9303L833.57 39.8814ZM829.767 42.9657C828.887 43.7728 828.035 44.9185 827.204 46.373L828.348 47.0266C829.141 45.6387 829.914 44.6188 830.658 43.9369L829.767 42.9657ZM827.193 46.3942C826.396 47.9149 826.001 49.5771 826.001 51.3695H827.318C827.318 49.7781 827.667 48.3272 828.36 47.0054L827.193 46.3942ZM826.001 51.3695V53.6029H827.318V51.3695H826.001ZM826.659 52.9442H811.737V54.2616H826.659V52.9442ZM811.989 75.7333V59.8968H810.672V75.7333H811.989ZM811.331 60.5555H827.065V59.2381H811.331V60.5555ZM826.407 59.8968V75.7333H827.724V59.8968H826.407ZM827.065 75.0746H811.331V76.392H827.065V75.0746Z" fill="url(#paint0_linear_227_176)"/>
<defs>
<linearGradient id="paint0_linear_227_176" x1="494.894" y1="191.921" x2="508.027" y2="-1.64664" gradientUnits="userSpaceOnUse">
<stop stop-opacity="0.83"/>
<stop offset="1" stop-opacity="0"/>
</linearGradient>
</defs>
</svg>
